<svg xmlns="http://www.w3.org/2000/svg" version="1.1" xmlns:xlink="http://www.w3.org/1999/xlink" xmlns:svgjs="http://svgjs.dev/svgjs" viewBox="0 0 6.434346660099484 8.651029402989414"><g transform="matrix(1,0,0,1,0.620371572237242,5.3606700377834215)"><rect width="8.651029402989414" height="8.651029402989414" x="-1.7287129436822068" y="-5.3606700377834215" fill="#dceac6"></rect><g><path d=" M 0.403564453125 0.8635253906250002 Q 0.403564453125 0.9309082031250002 0.37939453125 0.9785156250000002 Q 0.355224609375 1.0261230468750002 0.320068359375 1.0510253906250002 L 0.322998046875 1.0510253906250002 Q 0.3662109375 1.0510253906250002 0.4017333984375 1.0316162109375002 Q 0.437255859375 1.0122070312500002 0.4658203125 0.9818115234375002 Q 0.494384765625 0.9514160156250002 0.51708984375 0.9140625000000002 Q 0.539794921875 0.8767089843750002 0.557373046875 0.8415527343750002 Q 0.56103515625 0.8334960937500002 0.5679931640625 0.8291015625000002 Q 0.574951171875 0.8247070312500002 0.5830078125 0.8247070312500002 Q 0.595458984375 0.8247070312500002 0.602783203125 0.8334960937500002 Q 0.610107421875 0.8422851562500002 0.610107421875 0.8525390625000002 Q 0.610107421875 0.8583984375000002 0.60791015625 0.8635253906250002 Q 0.5888671875 0.9060058593750002 0.5625 0.9488525390625002 Q 0.5361328125 0.9916992187500002 0.5009765625 1.0261230468750002 Q 0.4658203125 1.0605468750000002 0.421875 1.0821533203125002 Q 0.3779296875 1.1037597656250002 0.324462890625 1.1037597656250002 Q 0.28564453125 1.1037597656250002 0.2490234375 1.0916748046875002 Q 0.21240234375 1.0795898437500002 0.1845703125 1.0539550781250002 Q 0.17431640625 1.0458984375000002 0.1669921875 1.0367431640625002 Q 0.15966796875 1.0275878906250002 0.1552734375 1.0195312500000002 Q 0.15380859375 1.0180664062500002 0.15380859375 1.0166015625000002 Q 0.1494140625 1.0100097656250002 0.1494140625 1.0026855468750002 Q 0.1494140625 0.9931640625000002 0.156005859375 0.9851074218750002 Q 0.15673828125 0.9836425781250002 0.157470703125 0.9832763671875002 Q 0.158203125 0.9829101562500002 0.158935546875 0.9821777343750002 Q 0.166259765625 0.9755859375000002 0.175048828125 0.9748535156250002 L 0.17724609375 0.9748535156250002 Q 0.180908203125 0.9748535156250002 0.182373046875 0.9755859375000002 Q 0.18310546875 0.9755859375000002 0.1834716796875 0.9759521484375002 Q 0.183837890625 0.9763183593750002 0.1845703125 0.9763183593750002 Q 0.186767578125 0.9763183593750002 0.189697265625 0.9777832031250002 Q 0.1904296875 0.9785156250000002 0.191162109375 0.9785156250000002 Q 0.19775390625 0.9829101562500002 0.2021484375 0.9895019531250002 Q 0.207275390625 0.9982910156250002 0.2138671875 1.0056152343750002 Q 0.2197265625 1.0114746093750002 0.227783203125 1.0162353515625002 Q 0.23583984375 1.0209960937500002 0.24609375 1.0209960937500002 Q 0.264404296875 1.0209960937500002 0.28271484375 1.0100097656250002 Q 0.301025390625 0.9990234375000002 0.315673828125 0.9785156250000002 Q 0.330322265625 0.9580078125000002 0.3394775390625 0.9287109375000002 Q 0.3486328125 0.8994140625000002 0.3486328125 0.8635253906250002 Q 0.3486328125 0.8371582031250002 0.3431396484375 0.8184814453125002 Q 0.337646484375 0.7998046875000002 0.3292236328125 0.7880859375000002 Q 0.32080078125 0.7763671875000002 0.311279296875 0.7708740234375002 Q 0.3017578125 0.7653808593750002 0.29296875 0.7653808593750002 Q 0.273193359375 0.7653808593750002 0.2530517578125 0.7858886718750002 Q 0.23291015625 0.8063964843750002 0.213134765625 0.8378906250000002 Q 0.193359375 0.8693847656250002 0.1739501953125 0.9074707031250002 Q 0.154541015625 0.9455566406250002 0.134765625 0.9814453125000002 Q 0.13330078125 1.1000976562500002 0.1307373046875 1.2077636718750002 Q 0.128173828125 1.3154296875000002 0.1219482421875 1.4077148437500002 Q 0.11572265625 1.5000000000000002 0.104736328125 1.5747070312500002 Q 0.09375 1.6494140625000002 0.07470703125 1.7025146484375002 Q 0.0556640625 1.7556152343750002 0.02783203125 1.7841796875000002 Q 0 1.8127441406250002 -0.040283203125 1.8127441406250002 Q -0.052734375 1.8127441406250002 -0.06884765625 1.8076171875000002 Q -0.0849609375 1.8024902343750002 -0.098876953125 1.7867431640625002 Q -0.11279296875 1.7709960937500002 -0.122314453125 1.7416992187500002 Q -0.1318359375 1.7124023437500002 -0.1318359375 1.6633300781250002 Q -0.1318359375 1.6010742187500002 -0.116455078125 1.5190429687500002 Q -0.10107421875 1.4370117187500002 -0.0728759765625 1.3450927734375002 Q -0.044677734375 1.2531738281250002 -0.005859375 1.1564941406250002 Q 0.032958984375 1.0598144531250002 0.079833984375 0.9682617187500002 Q 0.079833984375 0.9426269531250002 0.0802001953125 0.9177246093750002 Q 0.08056640625 0.8928222656250002 0.08056640625 0.8693847656250002 Q 0.071044921875 0.8803710937500002 0.057861328125 0.8803710937500002 Q 0.04541015625 0.8803710937500002 0.0380859375 0.8715820312500002 Q 0.03076171875 0.8627929687500002 0.03076171875 0.8525390625000002 Q 0.03076171875 0.8474121093750002 0.032958984375 0.8415527343750002 Q 0.050537109375 0.8012695312500002 0.06005859375 0.7650146484375002 Q 0.069580078125 0.7287597656250002 0.0743408203125 0.7012939453125002 Q 0.0791015625 0.6738281250000002 0.079833984375 0.6577148437500002 Q 0.08056640625 0.6416015625000002 0.08056640625 0.6408691406250002 Q 0.08056640625 0.6298828125000002 0.088623046875 0.6218261718750002 Q 0.0966796875 0.6137695312500002 0.1083984375 0.6137695312500002 Q 0.119384765625 0.6137695312500002 0.12744140625 0.6214599609375002 Q 0.135498046875 0.6291503906250002 0.135498046875 0.6408691406250002 L 0.135498046875 0.8657226562500002 Q 0.15234375 0.8371582031250002 0.169189453125 0.8093261718750002 Q 0.18603515625 0.7814941406250002 0.2047119140625 0.7595214843750002 Q 0.223388671875 0.7375488281250002 0.2449951171875 0.7239990234375002 Q 0.2666015625 0.7104492187500002 0.29296875 0.7104492187500002 Q 0.31787109375 0.7104492187500002 0.33837890625 0.7221679687500002 Q 0.35888671875 0.7338867187500002 0.37353515625 0.7543945312500002 Q 0.38818359375 0.7749023437500002 0.3958740234375 0.8031005859375002 Q 0.403564453125 0.8312988281250002 0.403564453125 0.8635253906250002 M 0.078369140625 1.0986328125000002 Q 0.04248046875 1.1791992187500002 0.0135498046875 1.2604980468750002 Q -0.015380859375 1.3417968750000002 -0.0355224609375 1.4172363281250002 Q -0.0556640625 1.4926757812500002 -0.066650390625 1.5585937500000002 Q -0.07763671875 1.6245117187500002 -0.07763671875 1.6743164062500002 Q -0.07763671875 1.6867675781250002 -0.076171875 1.7014160156250002 Q -0.07470703125 1.7160644531250002 -0.0703125 1.7285156250000002 Q -0.06591796875 1.7409667968750002 -0.057861328125 1.7493896484375002 Q -0.0498046875 1.7578125000000002 -0.03662109375 1.7578125000000002 Q -0.012451171875 1.7578125000000002 0.005126953125 1.7274169921875002 Q 0.022705078125 1.6970214843750002 0.0347900390625 1.6453857421875002 Q 0.046875 1.5937500000000002 0.054931640625 1.5267333984375002 Q 0.06298828125 1.4597167968750002 0.0677490234375 1.3864746093750002 Q 0.072509765625 1.3132324218750002 0.07470703125 1.2388916015625002 Q 0.076904296875 1.1645507812500002 0.078369140625 1.0986328125000002 M 0.64599609375 0.7968750000000002 Q 0.6416015625 0.8085937500000002 0.6353759765625 0.8232421875000002 Q 0.629150390625 0.8378906250000002 0.62109375 0.8540039062500002 Q 0.614501953125 0.8664550781250002 0.6075439453125 0.8734130859375002 Q 0.6005859375 0.8803710937500002 0.589599609375 0.8803710937500002 Q 0.5771484375 0.8803710937500002 0.56982421875 0.8726806640625002 Q 0.5625 0.8649902343750002 0.5625 0.8547363281250002 Q 0.5625 0.8510742187500002 0.563232421875 0.8485107421875002 Q 0.56396484375 0.8459472656250002 0.56689453125 0.8400878906250002 Q 0.5859375 0.8034667968750002 0.5950927734375 0.7760009765625002 Q 0.604248046875 0.7485351562500002 0.610107421875 0.7185058593750002 Q 0.60498046875 0.7016601562500002 0.602783203125 0.6899414062500002 Q 0.6005859375 0.6782226562500002 0.6005859375 0.6657714843750002 Q 0.6005859375 0.6416015625000002 0.61083984375 0.6265869140625002 Q 0.62109375 0.6115722656250002 0.639404296875 0.6115722656250002 Q 0.65625 0.6115722656250002 0.6661376953125 0.6262207031250002 Q 0.676025390625 0.6408691406250002 0.676025390625 0.6621093750000002 Q 0.676025390625 0.6738281250000002 0.673828125 0.6855468750000002 Q 0.671630859375 0.6972656250000002 0.66796875 0.7148437500000002 Q 0.684814453125 0.7565917968750002 0.70166015625 0.7888183593750002 Q 0.718505859375 0.8210449218750002 0.731689453125 0.8477783203125002 Q 0.744873046875 0.8745117187500002 0.7532958984375 0.8979492187500002 Q 0.76171875 0.9213867187500002 0.76171875 0.9448242187500002 Q 0.76171875 0.9755859375000002 0.749267578125 1.0034179687500002 Q 0.73681640625 1.0312500000000002 0.708251953125 1.0502929687500002 Q 0.7119140625 1.0510253906250002 0.715576171875 1.0510253906250002 Q 0.71923828125 1.0510253906250002 0.722900390625 1.0510253906250002 Q 0.7646484375 1.0510253906250002 0.7998046875 1.0319824218750002 Q 0.8349609375 1.0129394531250002 0.8631591796875 0.9825439453125002 Q 0.891357421875 0.9521484375000002 0.913330078125 0.9151611328125002 Q 0.935302734375 0.8781738281250002 0.951416015625 0.8415527343750002 Q 0.958740234375 0.8247070312500002 0.971923828125 0.8247070312500002 Q 0.984375 0.8247070312500002 0.9913330078125 0.8334960937500002 Q 0.998291015625 0.8422851562500002 0.998291015625 0.8525390625000002 Q 0.998291015625 0.8583984375000002 0.99609375 0.8635253906250002 Q 0.988037109375 0.8833007812500002 0.9752197265625 0.9085693359375002 Q 0.96240234375 0.9338378906250002 0.9444580078125 0.9605712890625002 Q 0.926513671875 0.9873046875000002 0.903076171875 1.0129394531250002 Q 0.879638671875 1.0385742187500002 0.8507080078125 1.0587158203125002 Q 0.82177734375 1.0788574218750002 0.787353515625 1.0909423828125002 Q 0.7529296875 1.1030273437500002 0.7119140625 1.1030273437500002 Q 0.662841796875 1.1030273437500002 0.6207275390625 1.0858154296875002 Q 0.57861328125 1.0686035156250002 0.55224609375 1.0290527343750002 Q 0.5478515625 1.0224609375000002 0.5478515625 1.0151367187500002 Q 0.5478515625 1.0041503906250002 0.5562744140625 0.9957275390625002 Q 0.564697265625 0.9873046875000002 0.57568359375 0.9873046875000002 Q 0.58740234375 0.9873046875000002 0.595458984375 0.9953613281250002 Q 0.59619140625 0.9968261718750002 0.6005859375 1.0001220703125002 Q 0.60498046875 1.0034179687500002 0.6112060546875 1.0074462890625002 Q 0.617431640625 1.0114746093750002 0.6258544921875 1.0144042968750002 Q 0.63427734375 1.0173339843750002 0.64306640625 1.0173339843750002 Q 0.66064453125 1.0173339843750002 0.6727294921875 1.0100097656250002 Q 0.684814453125 1.0026855468750002 0.692138671875 0.9920654296875002 Q 0.699462890625 0.9814453125000002 0.7027587890625 0.9693603515625002 Q 0.7060546875 0.9572753906250002 0.7060546875 0.9484863281250002 Q 0.7060546875 0.9301757812500002 0.7001953125 0.9118652343750002 Q 0.6943359375 0.8935546875000002 0.6851806640625 0.8752441406250002 Q 0.676025390625 0.8569335937500002 0.6654052734375 0.8375244140625002 Q 0.65478515625 0.8181152343750002 0.64599609375 0.7968750000000002 M 1.225341796875 1.0781250000000002 Q 1.2509765625 1.0524902343750002 1.27734375 1.0257568359375002 Q 1.3037109375 0.9990234375000002 1.32861328125 0.9697265625000002 Q 1.353515625 0.9404296875000002 1.3751220703125 0.9085693359375002 Q 1.396728515625 0.8767089843750002 1.41357421875 0.8408203125000002 Q 1.417236328125 0.8327636718750002 1.423828125 0.8287353515625002 Q 1.430419921875 0.8247070312500002 1.4384765625 0.8247070312500002 Q 1.450927734375 0.8247070312500002 1.4586181640625 0.8334960937500002 Q 1.46630859375 0.8422851562500002 1.46630859375 0.8532714843750002 Q 1.46630859375 0.8591308593750002 1.464111328125 0.8642578125000002 Q 1.44140625 0.9118652343750002 1.412109375 0.9514160156250002 Q 1.3828125 0.9909667968750002 1.3505859375 1.0264892578125002 Q 1.318359375 1.0620117187500002 1.285400390625 1.0953369140625002 Q 1.25244140625 1.1286621093750002 1.222412109375 1.1623535156250002 Q 1.219482421875 1.2128906250000002 1.222412109375 1.2637939453125002 Q 1.225341796875 1.3146972656250002 1.225341796875 1.3718261718750002 Q 1.225341796875 1.4187011718750002 1.222412109375 1.4655761718750002 Q 1.219482421875 1.5124511718750002 1.212890625 1.5552978515625002 Q 1.206298828125 1.5981445312500002 1.1949462890625 1.6354980468750002 Q 1.18359375 1.6728515625000002 1.166015625 1.7003173828125002 Q 1.1484375 1.7277832031250002 1.125 1.7435302734375002 Q 1.1015625 1.7592773437500002 1.070068359375 1.7592773437500002 Q 1.01806640625 1.7592773437500002 0.990234375 1.7233886718750002 Q 0.96240234375 1.6875000000000002 0.96240234375 1.6230468750000002 Q 0.96240234375 1.5878906250000002 0.9700927734375 1.5476074218750002 Q 0.977783203125 1.5073242187500002 0.99169921875 1.4644775390625002 Q 1.005615234375 1.4216308593750002 1.0250244140625 1.3776855468750002 Q 1.04443359375 1.3337402343750002 1.067138671875 1.2919921875000002 Q 1.08984375 1.2502441406250002 1.115478515625 1.2125244140625002 Q 1.14111328125 1.1748046875000002 1.16748046875 1.1440429687500002 Q 1.1689453125 1.1088867187500002 1.1707763671875 1.0711669921875002 Q 1.172607421875 1.0334472656250002 1.1748046875 1.0012207031250002 Q 1.15576171875 1.0349121093750002 1.1275634765625 1.0554199218750002 Q 1.099365234375 1.0759277343750002 1.065673828125 1.0759277343750002 Q 1.010009765625 1.0759277343750002 0.978515625 1.0385742187500002 Q 0.947021484375 1.0012207031250002 0.947021484375 0.9360351562500002 Q 0.947021484375 0.8884277343750002 0.9561767578125 0.8492431640625002 Q 0.96533203125 0.8100585937500002 0.9759521484375 0.7818603515625002 Q 0.986572265625 0.7536621093750002 0.995361328125 0.7386474609375002 Q 1.004150390625 0.7236328125000002 1.004150390625 0.7243652343750002 Q 1.01220703125 0.7119140625000002 1.02685546875 0.7119140625000002 Q 1.039306640625 0.7119140625000002 1.0469970703125 0.7203369140625002 Q 1.0546875 0.7287597656250002 1.0546875 0.7397460937500002 Q 1.0546875 0.7478027343750002 1.05029296875 0.7543945312500002 Q 1.051025390625 0.7536621093750002 1.0433349609375 0.7664794921875002 Q 1.03564453125 0.7792968750000002 1.0264892578125 0.8034667968750002 Q 1.017333984375 0.8276367187500002 1.0096435546875 0.8613281250000002 Q 1.001953125 0.8950195312500002 1.001953125 0.9353027343750002 Q 1.001953125 0.9755859375000002 1.0166015625 0.9982910156250002 Q 1.03125 1.0209960937500002 1.064208984375 1.0209960937500002 Q 1.10595703125 1.0209960937500002 1.1396484375 0.9591064453125002 Q 1.17333984375 0.8972167968750002 1.19677734375 0.7792968750000002 Q 1.1982421875 0.7697753906250002 1.20556640625 0.7635498046875002 Q 1.212890625 0.7573242187500002 1.22314453125 0.7573242187500002 Q 1.23486328125 0.7573242187500002 1.242919921875 0.7653808593750002 Q 1.2509765625 0.7734375000000002 1.2509765625 0.7851562500000002 Q 1.2509765625 0.7873535156250002 1.248046875 0.8111572265625002 Q 1.2451171875 0.8349609375000002 1.2410888671875 0.8745117187500002 Q 1.237060546875 0.9140625000000002 1.232666015625 0.9664306640625002 Q 1.228271484375 1.0187988281250002 1.225341796875 1.0781250000000002 M 1.166748046875 1.2333984375000002 Q 1.1337890625 1.2810058593750002 1.1063232421875 1.3337402343750002 Q 1.078857421875 1.3864746093750002 1.05908203125 1.4384765625000002 Q 1.039306640625 1.4904785156250002 1.0283203125 1.5380859375000002 Q 1.017333984375 1.5856933593750002 1.017333984375 1.6230468750000002 Q 1.017333984375 1.6611328125000002 1.02978515625 1.6827392578125002 Q 1.042236328125 1.7043457031250002 1.0693359375 1.7043457031250002 Q 1.093505859375 1.7043457031250002 1.1121826171875 1.6805419921875002 Q 1.130859375 1.6567382812500002 1.1436767578125 1.6127929687500002 Q 1.156494140625 1.5688476562500002 1.1630859375 1.5062255859375002 Q 1.169677734375 1.4436035156250002 1.169677734375 1.3659667968750002 Q 1.169677734375 1.3344726562500002 1.1685791015625 1.3022460937500002 Q 1.16748046875 1.2700195312500002 1.166748046875 1.2333984375000002 M 1.89990234375 0.8649902343750002 Q 1.8955078125 0.8730468750000002 1.8848876953125 0.8942871093750002 Q 1.874267578125 0.9155273437500002 1.8563232421875 0.9422607421875002 Q 1.83837890625 0.9689941406250002 1.8134765625 0.9975585937500002 Q 1.78857421875 1.0261230468750002 1.75634765625 1.0499267578125002 Q 1.72412109375 1.0737304687500002 1.6842041015625 1.0891113281250002 Q 1.644287109375 1.1044921875000002 1.597412109375 1.1044921875000002 Q 1.5556640625 1.1044921875000002 1.5234375 1.0894775390625002 Q 1.4912109375 1.0744628906250002 1.468505859375 1.0469970703125002 Q 1.44580078125 1.0195312500000002 1.43408203125 0.9821777343750002 Q 1.42236328125 0.9448242187500002 1.42236328125 0.8994140625000002 Q 1.42236328125 0.8554687500000002 1.434814453125 0.8170166015625002 Q 1.447265625 0.7785644531250002 1.4688720703125 0.7500000000000002 Q 1.490478515625 0.7214355468750002 1.51904296875 0.7049560546875002 Q 1.547607421875 0.6884765625000002 1.579833984375 0.6884765625000002 Q 1.60400390625 0.6884765625000002 1.623779296875 0.6968994140625002 Q 1.6435546875 0.7053222656250002 1.6571044921875 0.7192382812500002 Q 1.670654296875 0.7331542968750002 1.6783447265625 0.7500000000000002 Q 1.68603515625 0.7668457031250002 1.68603515625 0.7836914062500002 Q 1.68603515625 0.7998046875000002 1.6820068359375 0.8137207031250002 Q 1.677978515625 0.8276367187500002 1.6717529296875 0.8382568359375002 Q 1.66552734375 0.8488769531250002 1.657470703125 0.8551025390625002 Q 1.6494140625 0.8613281250000002 1.641357421875 0.8613281250000002 Q 1.62890625 0.8613281250000002 1.6212158203125 0.8532714843750002 Q 1.613525390625 0.8452148437500002 1.613525390625 0.8334960937500002 Q 1.613525390625 0.8276367187500002 1.6160888671875 0.8232421875000002 Q 1.61865234375 0.8188476562500002 1.6219482421875 0.8140869140625002 Q 1.625244140625 0.8093261718750002 1.6278076171875 0.8023681640625002 Q 1.63037109375 0.7954101562500002 1.63037109375 0.7844238281250002 Q 1.63037109375 0.7690429687500002 1.6160888671875 0.7565917968750002 Q 1.601806640625 0.7441406250000002 1.579833984375 0.7441406250000002 Q 1.559326171875 0.7441406250000002 1.5406494140625 0.7565917968750002 Q 1.52197265625 0.7690429687500002 1.508056640625 0.7899169921875002 Q 1.494140625 0.8107910156250002 1.4857177734375 0.8389892578125002 Q 1.477294921875 0.8671875000000002 1.477294921875 0.8986816406250002 Q 1.477294921875 0.9287109375000002 1.484619140625 0.9558105468750002 Q 1.491943359375 0.9829101562500002 1.506591796875 1.0037841796875002 Q 1.521240234375 1.0246582031250002 1.5435791015625 1.0371093750000002 Q 1.56591796875 1.0495605468750002 1.5966796875 1.0495605468750002 Q 1.63623046875 1.0495605468750002 1.669921875 1.0352783203125002 Q 1.70361328125 1.0209960937500002 1.7314453125 0.9990234375000002 Q 1.75927734375 0.9770507812500002 1.780517578125 0.9510498046875002 Q 1.8017578125 0.9250488281250002 1.8167724609375 0.9019775390625002 Q 1.831787109375 0.8789062500000002 1.8402099609375 0.8616943359375002 Q 1.8486328125 0.8444824218750002 1.85009765625 0.8400878906250002 Q 1.85302734375 0.8327636718750002 1.8599853515625 0.8287353515625002 Q 1.866943359375 0.8247070312500002 1.875 0.8247070312500002 Q 1.887451171875 0.8247070312500002 1.8951416015625 0.8334960937500002 Q 1.90283203125 0.8422851562500002 1.90283203125 0.8532714843750002 Q 1.90283203125 0.8576660156250002 1.89990234375 0.8649902343750002 M 1.915283203125 1.0056152343750002 Q 1.927001953125 0.9807128906250002 1.9423828125 0.9517822265625002 Q 1.957763671875 0.9228515625000002 1.975341796875 0.8924560546875002 Q 1.992919921875 0.8620605468750002 2.0126953125 0.8320312500000002 Q 2.032470703125 0.8020019531250002 2.0537109375 0.7756347656250002 Q 2.074951171875 0.7500000000000002 2.0965576171875 0.7386474609375002 Q 2.1181640625 0.7272949218750002 2.13720703125 0.7272949218750002 Q 2.15625 0.7272949218750002 2.1705322265625 0.7349853515625002 Q 2.184814453125 0.7426757812500002 2.1939697265625 0.7558593750000002 Q 2.203125 0.7690429687500002 2.2078857421875 0.7866210937500002 Q 2.212646484375 0.8041992187500002 2.212646484375 0.8247070312500002 Q 2.212646484375 0.8415527343750002 2.2093505859375 0.8697509765625002 Q 2.2060546875 0.8979492187500002 2.2060546875 0.9287109375000002 Q 2.2060546875 0.9462890625000002 2.2078857421875 0.9635009765625002 Q 2.209716796875 0.9807128906250002 2.2144775390625 0.9942626953125002 Q 2.21923828125 1.0078125000000002 2.228759765625 1.0162353515625002 Q 2.23828125 1.0246582031250002 2.253662109375 1.0246582031250002 Q 2.271240234375 1.0246582031250002 2.288818359375 1.0147705078125002 Q 2.306396484375 1.0048828125000002 2.3232421875 0.9884033203125002 Q 2.340087890625 0.9719238281250002 2.35546875 0.9517822265625002 Q 2.370849609375 0.9316406250000002 2.38330078125 0.9114990234375002 Q 2.395751953125 0.8913574218750002 2.4052734375 0.8726806640625002 Q 2.414794921875 0.8540039062500002 2.420654296875 0.8415527343750002 Q 2.427978515625 0.8247070312500002 2.4462890625 0.8247070312500002 Q 2.458740234375 0.8247070312500002 2.466064453125 0.8334960937500002 Q 2.473388671875 0.8422851562500002 2.473388671875 0.8525390625000002 Q 2.473388671875 0.8583984375000002 2.47119140625 0.8635253906250002 Q 2.46826171875 0.8693847656250002 2.4598388671875 0.8876953125000002 Q 2.451416015625 0.9060058593750002 2.4371337890625 0.9301757812500002 Q 2.4228515625 0.9543457031250002 2.40380859375 0.9807128906250002 Q 2.384765625 1.0070800781250002 2.3616943359375 1.0294189453125002 Q 2.338623046875 1.0517578125000002 2.3118896484375 1.0660400390625002 Q 2.28515625 1.0803222656250002 2.255859375 1.0803222656250002 Q 2.22216796875 1.0803222656250002 2.20166015625 1.0660400390625002 Q 2.18115234375 1.0517578125000002 2.1697998046875 1.0297851562500002 Q 2.158447265625 1.0078125000000002 2.1544189453125 0.9807128906250002 Q 2.150390625 0.9536132812500002 2.150390625 0.9279785156250002 Q 2.150390625 0.9147949218750002 2.1514892578125 0.8997802734375002 Q 2.152587890625 0.8847656250000002 2.154052734375 0.8701171875000002 Q 2.155517578125 0.8554687500000002 2.1566162109375 0.8426513671875002 Q 2.15771484375 0.8298339843750002 2.15771484375 0.8210449218750002 Q 2.15771484375 0.7983398437500002 2.1514892578125 0.7902832031250002 Q 2.145263671875 0.7822265625000002 2.13720703125 0.7822265625000002 Q 2.12548828125 0.7822265625000002 2.1104736328125 0.7957763671875002 Q 2.095458984375 0.8093261718750002 2.0789794921875 0.8312988281250002 Q 2.0625 0.8532714843750002 2.0460205078125 0.8807373046875002 Q 2.029541015625 0.9082031250000002 2.01416015625 0.9353027343750002 Q 1.998779296875 0.9624023437500002 1.986328125 0.9869384765625002 Q 1.973876953125 1.0114746093750002 1.9658203125 1.0275878906250002 Q 1.950439453125 1.0583496093750002 1.9346923828125 1.0689697265625002 Q 1.9189453125 1.0795898437500002 1.906494140625 1.0795898437500002 Q 1.8837890625 1.0795898437500002 1.8717041015625 1.0616455078125002 Q 1.859619140625 1.0437011718750002 1.859619140625 1.0180664062500002 L 1.859619140625 0.9719238281250002 Q 1.859619140625 0.8334960937500002 1.8599853515625 0.7078857421875002 Q 1.8603515625 0.5822753906250002 1.8636474609375 0.4742431640625002 Q 1.866943359375 0.3662109375000002 1.8746337890625 0.2786865234375002 Q 1.88232421875 0.19116210937500022 1.897705078125 0.12927246093750022 Q 1.9130859375 0.06738281250000022 1.9368896484375 0.03369140625000022 Q 1.960693359375 2.220446049250313e-16 1.99658203125 2.220446049250313e-16 Q 2.02734375 2.220446049250313e-16 2.048583984375 0.016845703125000222 Q 2.06982421875 0.03369140625000022 2.0830078125 0.06262207031250022 Q 2.09619140625 0.09155273437500022 2.10205078125 0.13000488281250022 Q 2.10791015625 0.16845703125000022 2.10791015625 0.21093750000000022 Q 2.10791015625 0.2973632812500002 2.0921630859375 0.3804931640625002 Q 2.076416015625 0.4636230468750002 2.050048828125 0.5427246093750002 Q 2.023681640625 0.6218261718750002 1.988525390625 0.6968994140625002 Q 1.953369140625 0.7719726562500002 1.91455078125 0.8430175781250002 Q 1.91455078125 0.8562011718750002 1.91455078125 0.8745117187500002 Q 1.91455078125 0.8928222656250002 1.91455078125 0.9111328125000002 Q 1.91455078125 0.9294433593750002 1.91455078125 0.9455566406250002 Q 1.91455078125 0.9616699218750002 1.91455078125 0.9711914062500002 L 1.915283203125 1.0056152343750002 M 1.915283203125 0.7353515625000002 Q 1.946044921875 0.6679687500000002 1.9713134765625 0.6038818359375002 Q 1.99658203125 0.5397949218750002 2.0145263671875 0.4760742187500002 Q 2.032470703125 0.4123535156250002 2.042724609375 0.3468017578125002 Q 2.052978515625 0.2812500000000002 2.052978515625 0.21020507812500022 Q 2.052978515625 0.19848632812500022 2.0518798828125 0.17285156250000022 Q 2.05078125 0.14721679687500022 2.0452880859375 0.12084960937500022 Q 2.039794921875 0.09448242187500022 2.0284423828125 0.07470703125000022 Q 2.01708984375 0.05493164062500022 1.99658203125 0.05493164062500022 Q 1.98046875 0.05493164062500022 1.96875 0.07653808593750022 Q 1.95703125 0.09814453125000022 1.9482421875 0.13513183593750022 Q 1.939453125 0.17211914062500022 1.93359375 0.22119140625000022 Q 1.927734375 0.2702636718750002 1.924072265625 0.3251953125000002 Q 1.92041015625 0.3801269531250002 1.9185791015625 0.4379882812500002 Q 1.916748046875 0.4958496093750002 1.916015625 0.5504150390625002 Q 1.915283203125 0.6049804687500002 1.915283203125 0.6525878906250002 Q 1.915283203125 0.7001953125000002 1.915283203125 0.7353515625000002 M 2.994140625 0.8635253906250002 Q 2.9912109375 0.8693847656250002 2.9820556640625 0.8880615234375002 Q 2.972900390625 0.9067382812500002 2.9586181640625 0.9309082031250002 Q 2.9443359375 0.9550781250000002 2.92529296875 0.9814453125000002 Q 2.90625 1.0078125000000002 2.8828125 1.0297851562500002 Q 2.859375 1.0517578125000002 2.832275390625 1.0660400390625002 Q 2.80517578125 1.0803222656250002 2.775146484375 1.0803222656250002 Q 2.732666015625 1.0803222656250002 2.7037353515625 1.0532226562500002 Q 2.6748046875 1.0261230468750002 2.66162109375 0.9851074218750002 Q 2.63671875 1.0268554687500002 2.602294921875 1.0513916015625002 Q 2.56787109375 1.0759277343750002 2.533447265625 1.0759277343750002 Q 2.50634765625 1.0759277343750002 2.484375 1.0660400390625002 Q 2.46240234375 1.0561523437500002 2.447021484375 1.0382080078125002 Q 2.431640625 1.0202636718750002 2.4232177734375 0.9960937500000002 Q 2.414794921875 0.9719238281250002 2.414794921875 0.9433593750000002 Q 2.414794921875 0.8862304687500002 2.4342041015625 0.8426513671875002 Q 2.45361328125 0.7990722656250002 2.483642578125 0.7697753906250002 Q 2.513671875 0.7404785156250002 2.5499267578125 0.7258300781250002 Q 2.586181640625 0.7111816406250002 2.619873046875 0.7111816406250002 Q 2.642578125 0.7111816406250002 2.66162109375 0.7174072265625002 Q 2.6806640625 0.7236328125000002 2.6942138671875 0.7309570312500002 Q 2.707763671875 0.7382812500000002 2.715087890625 0.7445068359375002 Q 2.722412109375 0.7507324218750002 2.72314453125 0.7514648437500002 Q 2.731201171875 0.7609863281250002 2.731201171875 0.7712402343750002 Q 2.731201171875 0.7822265625000002 2.72314453125 0.7906494140625002 Q 2.715087890625 0.7990722656250002 2.7041015625 0.7990722656250002 Q 2.6923828125 0.7990722656250002 2.684326171875 0.7910156250000002 Q 2.682861328125 0.7895507812500002 2.677734375 0.7855224609375002 Q 2.672607421875 0.7814941406250002 2.663818359375 0.7770996093750002 Q 2.655029296875 0.7727050781250002 2.6429443359375 0.7694091796875002 Q 2.630859375 0.7661132812500002 2.615478515625 0.7661132812500002 Q 2.5927734375 0.7661132812500002 2.567138671875 0.7763671875000002 Q 2.54150390625 0.7866210937500002 2.520263671875 0.8082275390625002 Q 2.4990234375 0.8298339843750002 2.4847412109375 0.8624267578125002 Q 2.470458984375 0.8950195312500002 2.470458984375 0.9396972656250002 Q 2.470458984375 0.9536132812500002 2.473388671875 0.9678955078125002 Q 2.476318359375 0.9821777343750002 2.483642578125 0.9938964843750002 Q 2.490966796875 1.0056152343750002 2.50341796875 1.0129394531250002 Q 2.515869140625 1.0202636718750002 2.5341796875 1.0202636718750002 Q 2.54736328125 1.0202636718750002 2.5645751953125 1.0114746093750002 Q 2.581787109375 1.0026855468750002 2.5975341796875 0.9843750000000002 Q 2.61328125 0.9660644531250002 2.6260986328125 0.9382324218750002 Q 2.638916015625 0.9104003906250002 2.64404296875 0.8723144531250002 Q 2.6455078125 0.8620605468750002 2.653564453125 0.8551025390625002 Q 2.66162109375 0.8481445312500002 2.672607421875 0.8481445312500002 Q 2.682861328125 0.8481445312500002 2.6905517578125 0.8562011718750002 Q 2.6982421875 0.8642578125000002 2.698974609375 0.8745117187500002 Q 2.69970703125 0.8884277343750002 2.701904296875 0.9136962890625002 Q 2.7041015625 0.9389648437500002 2.7117919921875 0.9638671875000002 Q 2.719482421875 0.9887695312500002 2.73486328125 1.0070800781250002 Q 2.750244140625 1.0253906250000002 2.77734375 1.0253906250000002 Q 2.794921875 1.0253906250000002 2.8121337890625 1.0158691406250002 Q 2.829345703125 1.0063476562500002 2.8458251953125 0.9906005859375002 Q 2.8623046875 0.9748535156250002 2.8773193359375 0.9547119140625002 Q 2.892333984375 0.9345703125000002 2.90478515625 0.9140625000000002 Q 2.917236328125 0.8935546875000002 2.9267578125 0.8745117187500002 Q 2.936279296875 0.8554687500000002 2.94287109375 0.8415527343750002 Q 2.946533203125 0.8334960937500002 2.9534912109375 0.8291015625000002 Q 2.96044921875 0.8247070312500002 2.968505859375 0.8247070312500002 Q 2.98095703125 0.8247070312500002 2.9886474609375 0.8338623046875002 Q 2.996337890625 0.8430175781250002 2.996337890625 0.8532714843750002 Q 2.996337890625 0.8583984375000002 2.994140625 0.8635253906250002 M 3.02783203125 0.7668457031250002 Q 3.02490234375 0.7866210937500002 3.0205078125 0.8038330078125002 Q 3.01611328125 0.8210449218750002 3.0120849609375 0.8338623046875002 Q 3.008056640625 0.8466796875000002 3.005126953125 0.8547363281250002 Q 3.002197265625 0.8627929687500002 3.00146484375 0.8635253906250002 Q 2.994140625 0.8803710937500002 2.975830078125 0.8803710937500002 Q 2.965576171875 0.8803710937500002 2.956787109375 0.8726806640625002 Q 2.947998046875 0.8649902343750002 2.947998046875 0.8532714843750002 Q 2.947998046875 0.8488769531250002 2.949462890625 0.8466796875000002 Q 2.950927734375 0.8444824218750002 2.953857421875 0.8378906250000002 Q 2.956787109375 0.8312988281250002 2.961181640625 0.8159179687500002 Q 2.965576171875 0.8005371093750002 2.97216796875 0.7683105468750002 Q 2.959716796875 0.7683105468750002 2.946533203125 0.7675781250000002 Q 2.933349609375 0.7668457031250002 2.9219970703125 0.7624511718750002 Q 2.91064453125 0.7580566406250002 2.9033203125 0.7485351562500002 Q 2.89599609375 0.7390136718750002 2.89599609375 0.7221679687500002 Q 2.89599609375 0.7097167968750002 2.9029541015625 0.6884765625000002 Q 2.909912109375 0.6672363281250002 2.921630859375 0.6467285156250002 Q 2.933349609375 0.6262207031250002 2.947998046875 0.6112060546875002 Q 2.962646484375 0.5961914062500002 2.977294921875 0.5961914062500002 Q 2.994140625 0.5961914062500002 3.0047607421875 0.6086425781250002 Q 3.015380859375 0.6210937500000002 3.021240234375 0.6390380859375002 Q 3.027099609375 0.6569824218750002 3.0296630859375 0.6767578125000002 Q 3.0322265625 0.6965332031250002 3.0322265625 0.7111816406250002 Q 3.044677734375 0.7111816406250002 3.0567626953125 0.7108154296875002 Q 3.06884765625 0.7104492187500002 3.079833984375 0.7104492187500002 Q 3.12158203125 0.7104492187500002 3.1435546875 0.7287597656250002 Q 3.16552734375 0.7470703125000002 3.16552734375 0.7888183593750002 Q 3.16552734375 0.8056640625000002 3.163330078125 0.8239746093750002 Q 3.1611328125 0.8422851562500002 3.158203125 0.8616943359375002 Q 3.1552734375 0.8811035156250002 3.153076171875 0.9001464843750002 Q 3.15087890625 0.9191894531250002 3.15087890625 0.9375000000000002 Q 3.15087890625 0.9638671875000002 3.158203125 0.9810791015625002 Q 3.16552734375 0.9982910156250002 3.176513671875 1.0085449218750002 Q 3.1875 1.0187988281250002 3.199951171875 1.0228271484375002 Q 3.21240234375 1.0268554687500002 3.22265625 1.0268554687500002 Q 3.254150390625 1.0268554687500002 3.281982421875 1.0063476562500002 Q 3.309814453125 0.9858398437500002 3.333251953125 0.9569091796875002 Q 3.356689453125 0.9279785156250002 3.3753662109375 0.8957519531250002 Q 3.39404296875 0.8635253906250002 3.406494140625 0.8393554687500002 Q 3.41015625 0.8327636718750002 3.416748046875 0.8291015625000002 Q 3.42333984375 0.8254394531250002 3.4306640625 0.8254394531250002 Q 3.44384765625 0.8254394531250002 3.451171875 0.8338623046875002 Q 3.45849609375 0.8422851562500002 3.45849609375 0.8525390625000002 Q 3.45849609375 0.8598632812500002 3.45556640625 0.8657226562500002 Q 3.438720703125 0.8957519531250002 3.4163818359375 0.9334716796875002 Q 3.39404296875 0.9711914062500002 3.365478515625 1.0041503906250002 Q 3.3369140625 1.0371093750000002 3.3013916015625 1.0598144531250002 Q 3.265869140625 1.0825195312500002 3.223388671875 1.0825195312500002 Q 3.197021484375 1.0825195312500002 3.173583984375 1.0726318359375002 Q 3.150146484375 1.0627441406250002 3.1329345703125 1.0440673828125002 Q 3.11572265625 1.0253906250000002 3.10546875 0.9979248046875002 Q 3.09521484375 0.9704589843750002 3.09521484375 0.9360351562500002 Q 3.09521484375 0.8994140625000002 3.1025390625 0.8631591796875002 Q 3.10986328125 0.8269042968750002 3.10986328125 0.7939453125000002 Q 3.10986328125 0.7800292968750002 3.1036376953125 0.7730712890625002 Q 3.097412109375 0.7661132812500002 3.076171875 0.7661132812500002 Q 3.06591796875 0.7661132812500002 3.0538330078125 0.7661132812500002 Q 3.041748046875 0.7661132812500002 3.02783203125 0.7668457031250002 M 2.978759765625 0.7126464843750002 Q 2.978759765625 0.7075195312500002 2.9783935546875 0.6990966796875002 Q 2.97802734375 0.6906738281250002 2.9769287109375 0.6826171875000002 Q 2.975830078125 0.6745605468750002 2.9739990234375 0.6687011718750002 Q 2.97216796875 0.6628417968750002 2.969970703125 0.6628417968750002 Q 2.9677734375 0.6628417968750002 2.9644775390625 0.6683349609375002 Q 2.961181640625 0.6738281250000002 2.95751953125 0.6815185546875002 Q 2.953857421875 0.6892089843750002 2.950927734375 0.6979980468750002 Q 2.947998046875 0.7067871093750002 2.946533203125 0.7126464843750002 L 2.978759765625 0.7126464843750002 M 4.00634765625 0.3347167968750002 Q 4.00634765625 0.3464355468750002 3.998291015625 0.3533935546875002 Q 3.990234375 0.3603515625000002 3.978515625 0.3603515625000002 L 3.607177734375 0.3603515625000002 L 3.607177734375 0.3684082031250002 Q 3.607177734375 0.4130859375000002 3.6005859375 0.4636230468750002 Q 3.593994140625 0.5141601562500002 3.5826416015625 0.5643310546875002 Q 3.5712890625 0.6145019531250002 3.5570068359375 0.6621093750000002 Q 3.542724609375 0.7097167968750002 3.5277099609375 0.7500000000000002 Q 3.5126953125 0.7902832031250002 3.498046875 0.8199462890625002 Q 3.4833984375 0.8496093750000002 3.4716796875 0.8642578125000002 Q 3.481201171875 0.8979492187500002 3.494384765625 0.9268798828125002 Q 3.507568359375 0.9558105468750002 3.5240478515625 0.9774169921875002 Q 3.54052734375 0.9990234375000002 3.5595703125 1.0114746093750002 Q 3.57861328125 1.0239257812500002 3.6005859375 1.0239257812500002 Q 3.626220703125 1.0239257812500002 3.6514892578125 1.0023193359375002 Q 3.6767578125 0.9807128906250002 3.6983642578125 0.9510498046875002 Q 3.719970703125 0.9213867187500002 3.7364501953125 0.8909912109375002 Q 3.7529296875 0.8605957031250002 3.76025390625 0.8422851562500002 Q 3.767578125 0.8247070312500002 3.785888671875 0.8247070312500002 Q 3.79833984375 0.8247070312500002 3.8060302734375 0.8334960937500002 Q 3.813720703125 0.8422851562500002 3.813720703125 0.8525390625000002 Q 3.813720703125 0.8576660156250002 3.8115234375 0.8627929687500002 Q 3.809326171875 0.8679199218750002 3.8009033203125 0.8862304687500002 Q 3.79248046875 0.9045410156250002 3.7789306640625 0.9287109375000002 Q 3.765380859375 0.9528808593750002 3.7474365234375 0.9796142578125002 Q 3.7294921875 1.0063476562500002 3.7071533203125 1.0283203125000002 Q 3.684814453125 1.0502929687500002 3.6591796875 1.0649414062500002 Q 3.633544921875 1.0795898437500002 3.60498046875 1.0795898437500002 Q 3.554443359375 1.0795898437500002 3.51416015625 1.0466308593750002 Q 3.473876953125 1.0136718750000002 3.4456787109375 0.9543457031250002 Q 3.41748046875 0.8950195312500002 3.40283203125 0.8137207031250002 Q 3.38818359375 0.7324218750000002 3.38818359375 0.6357421875000002 Q 3.38818359375 0.6115722656250002 3.388916015625 0.5789794921875002 Q 3.3896484375 0.5463867187500002 3.391845703125 0.5101318359375002 Q 3.39404296875 0.4738769531250002 3.3984375 0.4354248046875002 Q 3.40283203125 0.3969726562500002 3.41015625 0.3603515625000002 L 3.147216796875 0.3603515625000002 Q 3.135498046875 0.3603515625000002 3.12744140625 0.3533935546875002 Q 3.119384765625 0.3464355468750002 3.119384765625 0.3347167968750002 Q 3.119384765625 0.3229980468750002 3.12744140625 0.3160400390625002 Q 3.135498046875 0.3090820312500002 3.147216796875 0.3090820312500002 L 3.422607421875 0.3090820312500002 Q 3.429931640625 0.2827148437500002 3.4398193359375 0.2607421875000002 Q 3.44970703125 0.23876953125000022 3.4625244140625 0.22265625000000022 Q 3.475341796875 0.20654296875000022 3.4910888671875 0.19738769531250022 Q 3.5068359375 0.18823242187500022 3.52587890625 0.18823242187500022 Q 3.544189453125 0.18823242187500022 3.5577392578125 0.19738769531250022 Q 3.5712890625 0.20654296875000022 3.580810546875 0.22265625000000022 Q 3.59033203125 0.23876953125000022 3.5958251953125 0.2607421875000002 Q 3.601318359375 0.2827148437500002 3.604248046875 0.3090820312500002 L 3.978515625 0.3090820312500002 Q 3.990234375 0.3090820312500002 3.998291015625 0.3160400390625002 Q 4.00634765625 0.3229980468750002 4.00634765625 0.3347167968750002 M 3.454833984375 0.7910156250000002 Q 3.476806640625 0.7426757812500002 3.4947509765625 0.6866455078125002 Q 3.5126953125 0.6306152343750002 3.5255126953125 0.5734863281250002 Q 3.538330078125 0.5163574218750002 3.5452880859375 0.4614257812500002 Q 3.55224609375 0.4064941406250002 3.55224609375 0.3603515625000002 L 3.4658203125 0.3603515625000002 Q 3.45556640625 0.4057617187500002 3.4493408203125 0.4727783203125002 Q 3.443115234375 0.5397949218750002 3.443115234375 0.6357421875000002 Q 3.443115234375 0.6892089843750002 3.446044921875 0.7254638671875002 Q 3.448974609375 0.7617187500000002 3.454833984375 0.7910156250000002 M 3.52294921875 0.24316406250000022 Q 3.516357421875 0.24316406250000022 3.50390625 0.2574462890625002 Q 3.491455078125 0.2717285156250002 3.47900390625 0.3090820312500002 L 3.54931640625 0.3090820312500002 Q 3.545654296875 0.2783203125000002 3.5386962890625 0.2607421875000002 Q 3.53173828125 0.24316406250000022 3.52294921875 0.24316406250000022 M 3.466552734375 0.8437500000000002 L 3.466552734375 0.8444824218750002 L 3.466552734375 0.8437500000000002 M 3.889892578125 0.4929199218750002 Q 3.889892578125 0.5207519531250002 3.8704833984375 0.5401611328125002 Q 3.85107421875 0.5595703125000002 3.8232421875 0.5595703125000002 Q 3.79541015625 0.5595703125000002 3.7760009765625 0.5401611328125002 Q 3.756591796875 0.5207519531250002 3.756591796875 0.4929199218750002 Q 3.756591796875 0.4790039062500002 3.76171875 0.4669189453125002 Q 3.766845703125 0.4548339843750002 3.7760009765625 0.4456787109375002 Q 3.78515625 0.4365234375000002 3.7972412109375 0.4313964843750002 Q 3.809326171875 0.4262695312500002 3.8232421875 0.4262695312500002 Q 3.837158203125 0.4262695312500002 3.8492431640625 0.4313964843750002 Q 3.861328125 0.4365234375000002 3.8704833984375 0.4456787109375002 Q 3.879638671875 0.4548339843750002 3.884765625 0.4669189453125002 Q 3.889892578125 0.4790039062500002 3.889892578125 0.4929199218750002 M 3.771240234375 0.9221191406250002 Q 3.771240234375 0.8166503906250002 3.784423828125 0.7119140625000002 Q 3.785888671875 0.7016601562500002 3.7935791015625 0.6939697265625002 Q 3.80126953125 0.6862792968750002 3.813720703125 0.6862792968750002 Q 3.82470703125 0.6862792968750002 3.83203125 0.6947021484375002 Q 3.83935546875 0.7031250000000002 3.83935546875 0.7141113281250002 Q 3.83935546875 0.7185058593750002 3.8375244140625 0.7404785156250002 Q 3.835693359375 0.7624511718750002 3.8331298828125 0.7928466796875002 Q 3.83056640625 0.8232421875000002 3.8287353515625 0.8572998046875002 Q 3.826904296875 0.8913574218750002 3.826904296875 0.9199218750000002 Q 3.826904296875 0.9587402343750002 3.8345947265625 0.9825439453125002 Q 3.84228515625 1.0063476562500002 3.8543701171875 1.0195312500000002 Q 3.866455078125 1.0327148437500002 3.8800048828125 1.0371093750000002 Q 3.8935546875 1.0415039062500002 3.906005859375 1.0415039062500002 Q 3.926513671875 1.0415039062500002 3.948486328125 1.0268554687500002 Q 3.970458984375 1.0122070312500002 3.9935302734375 0.9858398437500002 Q 4.0166015625 0.9594726562500002 4.0400390625 0.9224853515625002 Q 4.0634765625 0.8854980468750002 4.086181640625 0.8400878906250002 Q 4.08984375 0.8327636718750002 4.096435546875 0.8287353515625002 Q 4.10302734375 0.8247070312500002 4.111083984375 0.8247070312500002 Q 4.122802734375 0.8247070312500002 4.1304931640625 0.8334960937500002 Q 4.13818359375 0.8422851562500002 4.13818359375 0.8525390625000002 Q 4.13818359375 0.8598632812500002 4.13525390625 0.8649902343750002 Q 4.12646484375 0.8818359375000002 4.11328125 0.9060058593750002 Q 4.10009765625 0.9301757812500002 4.083251953125 0.9558105468750002 Q 4.06640625 0.9814453125000002 4.0462646484375 1.0067138671875002 Q 4.026123046875 1.0319824218750002 4.00341796875 1.0521240234375002 Q 3.980712890625 1.0722656250000002 3.955810546875 1.0847167968750002 Q 3.930908203125 1.0971679687500002 3.9052734375 1.0971679687500002 Q 3.872314453125 1.0971679687500002 3.847412109375 1.0832519531250002 Q 3.822509765625 1.0693359375000002 3.8052978515625 1.0458984375000002 Q 3.7880859375 1.0224609375000002 3.7796630859375 0.9906005859375002 Q 3.771240234375 0.9587402343750002 3.771240234375 0.9221191406250002 M 3.848876953125 0.4929199218750002 Q 3.848876953125 0.4826660156250002 3.8411865234375 0.4749755859375002 Q 3.83349609375 0.4672851562500002 3.8232421875 0.4672851562500002 Q 3.81298828125 0.4672851562500002 3.8056640625 0.4749755859375002 Q 3.79833984375 0.4826660156250002 3.79833984375 0.4929199218750002 Q 3.79833984375 0.5031738281250002 3.8056640625 0.5104980468750002 Q 3.81298828125 0.5178222656250002 3.8232421875 0.5178222656250002 Q 3.83349609375 0.5178222656250002 3.8411865234375 0.5104980468750002 Q 3.848876953125 0.5031738281250002 3.848876953125 0.4929199218750002 M 4.1806640625 0.9873046875000002 Q 4.196044921875 1.0085449218750002 4.22021484375 1.0213623046875002 Q 4.244384765625 1.0341796875000002 4.279541015625 1.0341796875000002 Q 4.3154296875 1.0341796875000002 4.3447265625 1.0169677734375002 Q 4.3740234375 0.9997558593750002 4.398193359375 0.9719238281250002 Q 4.42236328125 0.9440917968750002 4.44140625 0.9096679687500002 Q 4.46044921875 0.8752441406250002 4.475830078125 0.8408203125000002 Q 4.4794921875 0.8327636718750002 4.486083984375 0.8287353515625002 Q 4.49267578125 0.8247070312500002 4.500732421875 0.8247070312500002 Q 4.51318359375 0.8247070312500002 4.5208740234375 0.8334960937500002 Q 4.528564453125 0.8422851562500002 4.528564453125 0.8525390625000002 Q 4.528564453125 0.8562011718750002 4.52783203125 0.8587646484375002 Q 4.527099609375 0.8613281250000002 4.525634765625 0.8642578125000002 Q 4.47509765625 0.9755859375000002 4.4154052734375 1.0319824218750002 Q 4.355712890625 1.0883789062500002 4.2802734375 1.0898437500000002 Q 4.23193359375 1.0898437500000002 4.19677734375 1.0711669921875002 Q 4.16162109375 1.0524902343750002 4.138916015625 1.0228271484375002 Q 4.1162109375 0.9931640625000002 4.105224609375 0.9558105468750002 Q 4.09423828125 0.9184570312500002 4.09423828125 0.8811035156250002 Q 4.09423828125 0.8437500000000002 4.1033935546875 0.8122558593750002 Q 4.112548828125 0.7807617187500002 4.1297607421875 0.7573242187500002 Q 4.14697265625 0.7338867187500002 4.1707763671875 0.7207031250000002 Q 4.194580078125 0.7075195312500002 4.22314453125 0.7075195312500002 Q 4.239990234375 0.7075195312500002 4.2564697265625 0.7144775390625002 Q 4.27294921875 0.7214355468750002 4.2861328125 0.7342529296875002 Q 4.29931640625 0.7470703125000002 4.307373046875 0.7653808593750002 Q 4.3154296875 0.7836914062500002 4.3154296875 0.8071289062500002 Q 4.3154296875 0.8371582031250002 4.30517578125 0.8635253906250002 Q 4.294921875 0.8898925781250002 4.2769775390625 0.9125976562500002 Q 4.259033203125 0.9353027343750002 4.234130859375 0.9543457031250002 Q 4.209228515625 0.9733886718750002 4.1806640625 0.9873046875000002 M 4.15869140625 0.9396972656250002 Q 4.181396484375 0.9301757812500002 4.2000732421875 0.9155273437500002 Q 4.21875 0.9008789062500002 4.23193359375 0.8833007812500002 Q 4.2451171875 0.8657226562500002 4.25244140625 0.8463134765625002 Q 4.259765625 0.8269042968750002 4.259765625 0.8071289062500002 Q 4.259765625 0.7851562500000002 4.248779296875 0.7738037109375002 Q 4.23779296875 0.7624511718750002 4.22314453125 0.7624511718750002 Q 4.203369140625 0.7624511718750002 4.189453125 0.7734375000000002 Q 4.175537109375 0.7844238281250002 4.166748046875 0.8020019531250002 Q 4.157958984375 0.8195800781250002 4.1539306640625 0.8411865234375002 Q 4.14990234375 0.8627929687500002 4.14990234375 0.8840332031250002 Q 4.14990234375 0.8972167968750002 4.1524658203125 0.9118652343750002 Q 4.155029296875 0.9265136718750002 4.15869140625 0.9396972656250002 M 4.564453125 0.7968750000000002 Q 4.56005859375 0.8085937500000002 4.5538330078125 0.8232421875000002 Q 4.547607421875 0.8378906250000002 4.53955078125 0.8540039062500002 Q 4.532958984375 0.8664550781250002 4.5260009765625 0.8734130859375002 Q 4.51904296875 0.8803710937500002 4.508056640625 0.8803710937500002 Q 4.49560546875 0.8803710937500002 4.48828125 0.8726806640625002 Q 4.48095703125 0.8649902343750002 4.48095703125 0.8547363281250002 Q 4.48095703125 0.8510742187500002 4.481689453125 0.8485107421875002 Q 4.482421875 0.8459472656250002 4.4853515625 0.8400878906250002 Q 4.50439453125 0.8034667968750002 4.5135498046875 0.7760009765625002 Q 4.522705078125 0.7485351562500002 4.528564453125 0.7185058593750002 Q 4.5234375 0.7016601562500002 4.521240234375 0.6899414062500002 Q 4.51904296875 0.6782226562500002 4.51904296875 0.6657714843750002 Q 4.51904296875 0.6416015625000002 4.529296875 0.6265869140625002 Q 4.53955078125 0.6115722656250002 4.557861328125 0.6115722656250002 Q 4.57470703125 0.6115722656250002 4.5845947265625 0.6262207031250002 Q 4.594482421875 0.6408691406250002 4.594482421875 0.6621093750000002 Q 4.594482421875 0.6738281250000002 4.59228515625 0.6855468750000002 Q 4.590087890625 0.6972656250000002 4.58642578125 0.7148437500000002 Q 4.603271484375 0.7565917968750002 4.6201171875 0.7888183593750002 Q 4.636962890625 0.8210449218750002 4.650146484375 0.8477783203125002 Q 4.663330078125 0.8745117187500002 4.6717529296875 0.8979492187500002 Q 4.68017578125 0.9213867187500002 4.68017578125 0.9448242187500002 Q 4.68017578125 0.9755859375000002 4.667724609375 1.0034179687500002 Q 4.6552734375 1.0312500000000002 4.626708984375 1.0502929687500002 Q 4.63037109375 1.0510253906250002 4.634033203125 1.0510253906250002 Q 4.6376953125 1.0510253906250002 4.641357421875 1.0510253906250002 Q 4.68310546875 1.0510253906250002 4.71826171875 1.0319824218750002 Q 4.75341796875 1.0129394531250002 4.7816162109375 0.9825439453125002 Q 4.809814453125 0.9521484375000002 4.831787109375 0.9151611328125002 Q 4.853759765625 0.8781738281250002 4.869873046875 0.8415527343750002 Q 4.877197265625 0.8247070312500002 4.890380859375 0.8247070312500002 Q 4.90283203125 0.8247070312500002 4.9097900390625 0.8334960937500002 Q 4.916748046875 0.8422851562500002 4.916748046875 0.8525390625000002 Q 4.916748046875 0.8583984375000002 4.91455078125 0.8635253906250002 Q 4.906494140625 0.8833007812500002 4.8936767578125 0.9085693359375002 Q 4.880859375 0.9338378906250002 4.8629150390625 0.9605712890625002 Q 4.844970703125 0.9873046875000002 4.821533203125 1.0129394531250002 Q 4.798095703125 1.0385742187500002 4.7691650390625 1.0587158203125002 Q 4.740234375 1.0788574218750002 4.705810546875 1.0909423828125002 Q 4.67138671875 1.1030273437500002 4.63037109375 1.1030273437500002 Q 4.581298828125 1.1030273437500002 4.5391845703125 1.0858154296875002 Q 4.4970703125 1.0686035156250002 4.470703125 1.0290527343750002 Q 4.46630859375 1.0224609375000002 4.46630859375 1.0151367187500002 Q 4.46630859375 1.0041503906250002 4.4747314453125 0.9957275390625002 Q 4.483154296875 0.9873046875000002 4.494140625 0.9873046875000002 Q 4.505859375 0.9873046875000002 4.513916015625 0.9953613281250002 Q 4.5146484375 0.9968261718750002 4.51904296875 1.0001220703125002 Q 4.5234375 1.0034179687500002 4.5296630859375 1.0074462890625002 Q 4.535888671875 1.0114746093750002 4.5443115234375 1.0144042968750002 Q 4.552734375 1.0173339843750002 4.5615234375 1.0173339843750002 Q 4.5791015625 1.0173339843750002 4.5911865234375 1.0100097656250002 Q 4.603271484375 1.0026855468750002 4.610595703125 0.9920654296875002 Q 4.617919921875 0.9814453125000002 4.6212158203125 0.9693603515625002 Q 4.62451171875 0.9572753906250002 4.62451171875 0.9484863281250002 Q 4.62451171875 0.9301757812500002 4.61865234375 0.9118652343750002 Q 4.61279296875 0.8935546875000002 4.6036376953125 0.8752441406250002 Q 4.594482421875 0.8569335937500002 4.5838623046875 0.8375244140625002 Q 4.5732421875 0.8181152343750002 4.564453125 0.7968750000000002 M 5.464599609375 0.3347167968750002 Q 5.464599609375 0.3464355468750002 5.45654296875 0.3533935546875002 Q 5.448486328125 0.3603515625000002 5.436767578125 0.3603515625000002 L 5.0654296875 0.3603515625000002 L 5.0654296875 0.3684082031250002 Q 5.0654296875 0.4130859375000002 5.058837890625 0.4636230468750002 Q 5.05224609375 0.5141601562500002 5.0408935546875 0.5643310546875002 Q 5.029541015625 0.6145019531250002 5.0152587890625 0.6621093750000002 Q 5.0009765625 0.7097167968750002 4.9859619140625 0.7500000000000002 Q 4.970947265625 0.7902832031250002 4.956298828125 0.8199462890625002 Q 4.941650390625 0.8496093750000002 4.929931640625 0.8642578125000002 Q 4.939453125 0.8979492187500002 4.95263671875 0.9268798828125002 Q 4.9658203125 0.9558105468750002 4.9822998046875 0.9774169921875002 Q 4.998779296875 0.9990234375000002 5.017822265625 1.0114746093750002 Q 5.036865234375 1.0239257812500002 5.058837890625 1.0239257812500002 Q 5.08447265625 1.0239257812500002 5.1097412109375 1.0023193359375002 Q 5.135009765625 0.9807128906250002 5.1566162109375 0.9510498046875002 Q 5.17822265625 0.9213867187500002 5.1947021484375 0.8909912109375002 Q 5.211181640625 0.8605957031250002 5.218505859375 0.8422851562500002 Q 5.225830078125 0.8247070312500002 5.244140625 0.8247070312500002 Q 5.256591796875 0.8247070312500002 5.2642822265625 0.8334960937500002 Q 5.27197265625 0.8422851562500002 5.27197265625 0.8525390625000002 Q 5.27197265625 0.8576660156250002 5.269775390625 0.8627929687500002 Q 5.267578125 0.8679199218750002 5.2591552734375 0.8862304687500002 Q 5.250732421875 0.9045410156250002 5.2371826171875 0.9287109375000002 Q 5.2236328125 0.9528808593750002 5.2056884765625 0.9796142578125002 Q 5.187744140625 1.0063476562500002 5.1654052734375 1.0283203125000002 Q 5.14306640625 1.0502929687500002 5.117431640625 1.0649414062500002 Q 5.091796875 1.0795898437500002 5.063232421875 1.0795898437500002 Q 5.0126953125 1.0795898437500002 4.972412109375 1.0466308593750002 Q 4.93212890625 1.0136718750000002 4.9039306640625 0.9543457031250002 Q 4.875732421875 0.8950195312500002 4.861083984375 0.8137207031250002 Q 4.846435546875 0.7324218750000002 4.846435546875 0.6357421875000002 Q 4.846435546875 0.6115722656250002 4.84716796875 0.5789794921875002 Q 4.847900390625 0.5463867187500002 4.85009765625 0.5101318359375002 Q 4.852294921875 0.4738769531250002 4.856689453125 0.4354248046875002 Q 4.861083984375 0.3969726562500002 4.868408203125 0.3603515625000002 L 4.60546875 0.3603515625000002 Q 4.59375 0.3603515625000002 4.585693359375 0.3533935546875002 Q 4.57763671875 0.3464355468750002 4.57763671875 0.3347167968750002 Q 4.57763671875 0.3229980468750002 4.585693359375 0.3160400390625002 Q 4.59375 0.3090820312500002 4.60546875 0.3090820312500002 L 4.880859375 0.3090820312500002 Q 4.88818359375 0.2827148437500002 4.8980712890625 0.2607421875000002 Q 4.907958984375 0.23876953125000022 4.9207763671875 0.22265625000000022 Q 4.93359375 0.20654296875000022 4.9493408203125 0.19738769531250022 Q 4.965087890625 0.18823242187500022 4.984130859375 0.18823242187500022 Q 5.00244140625 0.18823242187500022 5.0159912109375 0.19738769531250022 Q 5.029541015625 0.20654296875000022 5.0390625 0.22265625000000022 Q 5.048583984375 0.23876953125000022 5.0540771484375 0.2607421875000002 Q 5.0595703125 0.2827148437500002 5.0625 0.3090820312500002 L 5.436767578125 0.3090820312500002 Q 5.448486328125 0.3090820312500002 5.45654296875 0.3160400390625002 Q 5.464599609375 0.3229980468750002 5.464599609375 0.3347167968750002 M 4.9130859375 0.7910156250000002 Q 4.93505859375 0.7426757812500002 4.9530029296875 0.6866455078125002 Q 4.970947265625 0.6306152343750002 4.9837646484375 0.5734863281250002 Q 4.99658203125 0.5163574218750002 5.0035400390625 0.4614257812500002 Q 5.010498046875 0.4064941406250002 5.010498046875 0.3603515625000002 L 4.924072265625 0.3603515625000002 Q 4.913818359375 0.4057617187500002 4.9075927734375 0.4727783203125002 Q 4.9013671875 0.5397949218750002 4.9013671875 0.6357421875000002 Q 4.9013671875 0.6892089843750002 4.904296875 0.7254638671875002 Q 4.9072265625 0.7617187500000002 4.9130859375 0.7910156250000002 M 4.981201171875 0.24316406250000022 Q 4.974609375 0.24316406250000022 4.962158203125 0.2574462890625002 Q 4.94970703125 0.2717285156250002 4.937255859375 0.3090820312500002 L 5.007568359375 0.3090820312500002 Q 5.00390625 0.2783203125000002 4.9969482421875 0.2607421875000002 Q 4.989990234375 0.24316406250000022 4.981201171875 0.24316406250000022 M 4.9248046875 0.8437500000000002 L 4.9248046875 0.8444824218750002 L 4.9248046875 0.8437500000000002" fill="#212245" fill-rule="nonzero"></path></g><g><path d=" M 1.8699374389648438 2.30748779296875 C 1.8699374389648438 2.33123779296875 1.8636874389648437 2.33311279296875 1.8636874389648437 2.33998779296875 C 1.8636874389648437 2.34811279296875 1.8699374389648438 2.35311279296875 1.8793124389648437 2.35311279296875 C 1.893687438964844 2.35311279296875 1.9068124389648438 2.33061279296875 1.9068124389648438 2.30248779296875 C 1.9068124389648438 2.23686279296875 1.8430624389648438 2.18873779296875 1.7524374389648438 2.18873779296875 C 1.634937438964844 2.18873779296875 1.5186874389648437 2.26311279296875 1.5186874389648437 2.4393627929687502 C 1.5186874389648437 2.5912377929687502 1.6249374389648439 2.66998779296875 1.753062438964844 2.66998779296875 C 1.8274374389648438 2.66998779296875 1.884937438964844 2.63436279296875 1.9143124389648438 2.60061279296875 C 1.9180624389648437 2.59623779296875 1.9255624389648438 2.58623779296875 1.9255624389648438 2.57811279296875 C 1.9255624389648438 2.57061279296875 1.9199374389648438 2.56373779296875 1.9105624389648437 2.56373779296875 C 1.9036874389648437 2.56373779296875 1.9018124389648439 2.56561279296875 1.8974374389648438 2.56998779296875 C 1.8730624389648438 2.59748779296875 1.822437438964844 2.63561279296875 1.7555624389648439 2.63561279296875 C 1.6468124389648438 2.63561279296875 1.5561874389648438 2.57436279296875 1.5561874389648438 2.4393627929687502 C 1.5561874389648438 2.27811279296875 1.6530624389648438 2.22311279296875 1.7524374389648438 2.22311279296875 C 1.8193124389648438 2.22311279296875 1.8718124389648438 2.25498779296875 1.8699374389648438 2.30748779296875 M 2.3212008666992188 2.57311279296875 L 2.358075866699219 2.65186279296875 C 2.3618258666992187 2.65936279296875 2.367450866699219 2.66373779296875 2.376825866699219 2.66373779296875 C 2.387450866699219 2.66373779296875 2.391825866699219 2.65623779296875 2.391825866699219 2.65123779296875 C 2.391825866699219 2.64623779296875 2.389950866699219 2.64311279296875 2.389950866699219 2.64311279296875 L 2.2143258666992187 2.27311279296875 C 2.211200866699219 2.26623779296875 2.208075866699219 2.25873779296875 2.1987008666992187 2.25873779296875 C 2.189325866699219 2.25873779296875 2.185575866699219 2.26623779296875 2.182450866699219 2.27248779296875 L 2.009325866699219 2.64311279296875 C 2.009325866699219 2.64311279296875 2.007450866699219 2.64623779296875 2.007450866699219 2.65123779296875 C 2.007450866699219 2.65811279296875 2.013700866699219 2.66373779296875 2.0224508666992187 2.66373779296875 C 2.034950866699219 2.66373779296875 2.039325866699219 2.65936279296875 2.044325866699219 2.64811279296875 L 2.078700866699219 2.57311279296875 M 2.199325866699219 2.31373779296875 L 2.3055758666992188 2.53998779296875 L 2.094325866699219 2.53998779296875 M 2.5149554443359374 2.63123779296875 L 2.5149554443359374 2.27561279296875 C 2.5149554443359374 2.26936279296875 2.5112054443359373 2.26561279296875 2.4968304443359375 2.26561279296875 C 2.4837054443359374 2.26561279296875 2.4793304443359374 2.26998779296875 2.4793304443359374 2.27561279296875 L 2.4793304443359374 2.65311279296875 C 2.4793304443359374 2.65936279296875 2.4837054443359374 2.66373779296875 2.4899554443359375 2.66373779296875 L 2.7368304443359377 2.66373779296875 C 2.7368304443359377 2.66373779296875 2.7474554443359374 2.66123779296875 2.7474554443359374 2.64748779296875 C 2.7474554443359374 2.63436279296875 2.7368304443359377 2.63123779296875 2.7368304443359377 2.63123779296875 M 3.0561865234375 2.65748779296875 C 3.0636865234375 2.65748779296875 3.0668115234375 2.65248779296875 3.0693115234375 2.64873779296875 L 3.2455615234375 2.34686279296875 L 3.2455615234375 2.65311279296875 C 3.2455615234375 2.66061279296875 3.2493115234375 2.66373779296875 3.2636865234375003 2.66373779296875 C 3.2768115234375 2.66373779296875 3.2811865234375 2.65998779296875 3.2811865234375 2.65311279296875 L 3.2811865234375 2.27498779296875 C 3.2811865234375 2.26873779296875 3.2743115234375 2.26561279296875 3.2668115234375 2.26561279296875 C 3.2605615234375 2.26561279296875 3.2543115234375 2.26811279296875 3.2511865234375 2.27311279296875 L 3.0586865234375002 2.60811279296875 L 2.8755615234375003 2.27373779296875 C 2.8724365234375 2.26811279296875 2.8661865234375 2.26561279296875 2.8568115234375 2.26561279296875 C 2.8486865234375003 2.26561279296875 2.8411865234375 2.26936279296875 2.8411865234375 2.27623779296875 L 2.8411865234375 2.65311279296875 C 2.8411865234375 2.65936279296875 2.8436865234375 2.66373779296875 2.8574365234375 2.66373779296875 C 2.8711865234375002 2.66373779296875 2.8736865234375 2.65936279296875 2.8736865234375 2.65311279296875 L 2.8736865234375 2.34248779296875 L 3.0424365234375 2.64873779296875 C 3.0449365234375003 2.65311279296875 3.0486865234375 2.65748779296875 3.0561865234375 2.65748779296875 M 3.519294128417969 2.50311279296875 L 3.519294128417969 2.65311279296875 C 3.519294128417969 2.65811279296875 3.523669128417969 2.66373779296875 3.536794128417969 2.66373779296875 C 3.551169128417969 2.66373779296875 3.554919128417969 2.65811279296875 3.554919128417969 2.65311279296875 L 3.554919128417969 2.50311279296875 L 3.699919128417969 2.28373779296875 C 3.699919128417969 2.28373779296875 3.703044128417969 2.27998779296875 3.703044128417969 2.27748779296875 C 3.703044128417969 2.26998779296875 3.694294128417969 2.26561279296875 3.685544128417969 2.26561279296875 C 3.676169128417969 2.26561279296875 3.671169128417969 2.27061279296875 3.671169128417969 2.27061279296875 L 3.5386691284179688 2.46936279296875 L 3.409919128417969 2.27811279296875 C 3.404294128417969 2.26936279296875 3.396794128417969 2.26561279296875 3.387419128417969 2.26561279296875 C 3.377419128417969 2.26561279296875 3.371794128417969 2.27123779296875 3.371794128417969 2.27686279296875 C 3.371794128417969 2.28186279296875 3.374919128417969 2.28748779296875 3.374919128417969 2.28748779296875" fill="#212245" fill-rule="nonzero"></path></g><g clip-path="url(#SvgjsClipPath1002)"><g clip-path="url(#SvgjsClipPath1000903316a9-e5ea-4063-ad7b-537d881902bc)"><path d=" M 4.845698048670211 -2.491402174688469 C 4.845701559069271 -2.4797064034098604 4.841056986675237 -2.46848865249013 4.832786827120415 -2.4602184929353106 C 4.824516667565594 -2.451948333380491 4.813298916645864 -2.4473037609864585 4.801603145367257 -2.447307271385519 C 4.067556781630448 -2.447307271385519 3.3737788903017 -2.2084810996972863 2.7953197706875366 -1.7566679132626888 C 2.7875891181751538 -1.7506138147505017 2.7780529181212286 -1.7473244661360523 2.768233799184412 -1.7473250720543452 C 2.7546408910905957 -1.7472975629729195 2.741797942252451 -1.7535524123072657 2.7334387434842444 -1.7642711670460445 C 2.72623846916932 -1.7734882719023037 2.7229947749457883 -1.7851882608074856 2.7244212972042323 -1.7967970508558753 C 2.7258478194626763 -1.8084058409042658 2.731827693881562 -1.8189724105714515 2.7410453044680274 -1.826172037451903 C 3.3351342533036523 -2.290215251068253 4.047690428661063 -2.5354970779914194 4.801586609365122 -2.5354970779914194 C 4.813285245058393 -2.535504977667119 4.824507245912307 -2.5308623430554626 4.8327809830652155 -2.5225917074684383 C 4.841054720218124 -2.514321071881414 4.845701562069892 -2.5031008125213456 4.845698048670211 -2.491402174688469 Z M 4.775162077947544 -2.193883117009278 L 4.774775135497499 -2.193883117009278 C 4.121861012653808 -2.188155045868446 3.502495130949027 -1.9769572265534845 2.9836317630425926 -1.5831291852183118 C 2.974308993678986 -1.5760664907447324 2.9681765108649936 -1.5655871889749382 2.9665853526256436 -1.5539999590518088 C 2.9649941943862927 -1.5424127291286789 2.9680749108208913 -1.5306682709761743 2.97514879394546 -1.5213539884287068 C 2.983493506500802 -1.5103467139523619 2.99651798183385 -1.503890795694121 3.010330792095673 -1.503915120573276 C 3.019945535449849 -1.5039141998992887 3.029294903395132 -1.5070686094893775 3.0369438339376313 -1.5128941697345684 C 3.540561007872222 -1.895137087971397 4.141753823226615 -2.1001372136847882 4.775539098796306 -2.1056900032029495 C 4.799888335112538 -2.1059154959510034 4.819450718522437 -2.1258257274315238 4.819247059649211 -2.1501751561563722 C 4.819040089509168 -2.1743752551784667 4.7993630619881715 -2.1938840020439954 4.775162077947543 -2.1938831170092783 Z M 4.690921068652357 -1.8511050214765743 C 4.151387872154212 -1.8298282641440426 3.6312083949168756 -1.6443449292655123 3.1999358998179734 -1.3194560167165288 C 3.1804783643360492 -1.304827737855914 3.1765460600204105 -1.2772039290296449 3.191148668281488 -1.2577271207329122 C 3.1994899496526825 -1.246622754452162 3.212574698697474 -1.2400963100419204 3.2264629544488095 -1.240112971254812 C 3.236003733956449 -1.2401078595830115 3.2452857954325265 -1.2432150395317207 3.2529007146680984 -1.2489630395994227 C 3.6699097876379603 -1.56308504869919 4.172873167876782 -1.7424230760774684 4.694549067521578 -1.7630012020817962 C 4.7062339533003925 -1.763476462671076 4.717250858333304 -1.7685764060733034 4.725173886461891 -1.777178036939905 C 4.733096914590478 -1.785779667806508 4.737276367117434 -1.7971776411256997 4.736791938584999 -1.8088621504131548 C 4.735670683310573 -1.8331385848616266 4.715207507600912 -1.851983295989204 4.690921068652357 -1.8511050214765734 Z M 4.537060183152985 -1.4970229148818834 C 4.119932403408695 -1.4496008469812338 3.723471552977209 -1.2899510394178662 3.3898849563847544 -1.03506985193586 C 3.3705443729640474 -1.0202848289930664 3.366843459521152 -0.9926242019208651 3.3816169553154247 -0.9732748119436891 C 3.3899696764184637 -0.962337203683481 3.402950738532465 -0.9559274067104915 3.4167129662545155 -0.9559450817023736 C 3.426381607522984 -0.9559385958497946 3.4357819847848914 -0.9591239821591722 3.4434549889131567 -0.9650068108743595 C 3.764339850409529 -1.2102034117608222 4.1457167842804825 -1.3637830864932123 4.546975170035324 -1.409392025148271 C 4.558596353430128 -1.4107102684886952 4.569217650218157 -1.416591742365887 4.5765017952084355 -1.4257422014123424 C 4.583785940198714 -1.4348926604587984 4.587136055147814 -1.446562296710853 4.585814931858608 -1.4581831530586005 C 4.584549699079914 -1.4698184961748737 4.578688951285208 -1.4804663359468342 4.569535434264355 -1.4877598364484217 C 4.560381917243502 -1.4950533369500092 4.548694142038582 -1.4983881183943866 4.537070104754267 -1.497022914881883 Z M 4.253838152922878 -1.0942389747884125 C 3.997828798194056 -1.0211456244903272 3.7592674853128836 -0.896978542063561 3.5525297662201822 -0.729219956379211 C 3.5434330495511173 -0.7218643127868303 3.537632410732048 -0.7111950812644414 3.5364048783622333 -0.6995611261718491 C 3.5351773459924187 -0.6879271710792558 3.53862355671731 -0.6762822776221533 3.545984816573702 -0.6671901051566707 C 3.5543590470404793 -0.6568242187451032 3.56698109206853 -0.6508136052811766 3.5803069426127037 -0.650845920642821 C 3.590391581798084 -0.6508328973576809 3.6001716143137386 -0.6543012342591368 3.6079948245936753 -0.6606649987127566 C 3.8055432711891126 -0.8209649636257121 4.033502004325547 -0.9396085798488838 4.278132847264995 -1.0094456630217916 C 4.289376320237663 -1.012665633368378 4.29887918232088 -1.0202220130005073 4.304549203635818 -1.0304511259536477 C 4.310219224950757 -1.0406802389067868 4.311591524887991 -1.052743408216707 4.308363966374893 -1.0639847052755198 C 4.301635855785113 -1.0873707171229285 4.277252563166552 -1.1009025274162174 4.25384807452416 -1.0942389747884107 Z M 0.3920003702577392 -2.5354970779914194 C 0.38030459897913294 -2.5355005883904798 0.36908684805940306 -2.530856015996447 0.3608166885045827 -2.522585856441626 C 0.3525465289497624 -2.5143156968868055 0.3479019565557291 -2.5030979459670752 0.3479054669547894 -2.491402174688469 C 0.34790195655572564 -2.4797064034098764 0.3525465289497556 -2.468488652490145 0.36081668850457344 -2.4602184929353217 C 0.36908684805939124 -2.4519483333804994 0.3803045989791198 -2.4473037609864625 0.39200037025772605 -2.447307271385519 C 1.7133757651558923 -2.447307271385519 2.8959578797034196 -1.6590459710368979 3.4046979071005663 -0.4391090276581391 C 3.411529405372483 -0.42267349556834866 3.4275777066202306 -0.4119615806704626 3.445376472361669 -0.4119569121464588 C 3.451204366843145 -0.41195674023660356 3.456973609189269 -0.4131204833331221 3.4623457177563615 -0.41537986458916176 C 3.4731425523675137 -0.41987481122006365 3.4817096501486597 -0.42847745317846186 3.4861598560075575 -0.43929280572235374 C 3.490610061866455 -0.4501081582662465 3.490578302421855 -0.46224898214248267 3.4860715736249097 -0.4730409040466679 C 2.9636099716531032 -1.725944021289059 1.749116680178391 -2.5354970779914194 0.3920003702577392 -2.5354970779914194 Z M 0.4188713737330611 -2.193773979395163 L 0.4184844312830165 -2.193773979395163 C 0.3942788384211343 -2.19378211329457 0.3745947357174791 -2.174270742910447 0.3743895279800667 -2.1500660185422573 C 0.3742838131858139 -2.1383704052661217 0.37883008679032226 -2.127112144362797 0.38702758201419135 -2.11876950583669 C 0.3952250772380605 -2.1104268673105815 0.4064018214491037 -2.1056837216143927 0.4180974888329716 -2.1055841727892637 C 1.578639871530852 -2.095272879305378 2.623154164892374 -1.399343617897589 3.079619948257084 -0.33228976104282637 C 3.086538497847042 -0.31604766951493257 3.102485537407376 -0.3055048176998243 3.1201397678976552 -0.30550143757819637 C 3.126106736280145 -0.30551036099123596 3.1320103387984464 -0.30672527919241066 3.1374959557423927 -0.3090732140401471 C 3.1482434551155425 -0.31367488995659976 3.156721526043946 -0.3223592621994724 3.1610635288237847 -0.33321426914907004 C 3.1654055316036236 -0.3440692760986668 3.1652554610988304 -0.3562049049148186 3.1606463587365163 -0.3669492215254557 C 2.690435619256106 -1.4662018193462338 1.614422029850321 -2.18314185843856 0.4188713737330616 -2.193773979395162 Z M 0.5028444997936025 -1.8505890982098485 C 0.49113465567509834 -1.8511690904138014 0.4796824999226652 -1.8470217628217682 0.47105936917531366 -1.8390783091427703 C 0.462436238427962 -1.8311348554637723 0.4573647331782658 -1.8200609206601022 0.45698355146224384 -1.8083429199460013 C 0.45599153891011585 -1.784018637489845 0.47490241682869183 -1.7634939760488972 0.49922642252566374 -1.7624952004163523 C 1.4656366883149212 -1.722964233703673 2.3208158821182705 -1.1531402144063172 2.731027794372428 -0.2754389856901138 C 2.73829258371214 -0.25990746899970496 2.7538983535871484 -0.2499920013303596 2.7710449195479847 -0.25001322880171006 C 2.777489110465036 -0.250018711184139 2.7838537828230074 -0.25143659491624426 2.7896909155595377 -0.2541670725389418 C 2.811741055445394 -0.26448563402236047 2.8212628956496313 -0.2907169494427704 2.8109661359111366 -0.31277727851920645 C 2.386741615444679 -1.2204450503110902 1.5023267698601792 -1.8097021793217984 0.5028444997936025 -1.8505890982098485 Z M 0.6565764044762934 -1.4969270060694786 C 0.6449470969235191 -1.498275917616152 0.6332598453466236 -1.4949330982467894 0.6241026955609659 -1.4876387878393014 C 0.6149455457753081 -1.4803444774318137 0.6090741151575757 -1.4697005780871661 0.6077885837663919 -1.458064093843201 C 0.6050692800415053 -1.4338630156426269 0.6224725074713668 -1.4120353392217089 0.6466713391952363 -1.4092961163358662 C 1.360305661892087 -1.3285210530889415 1.9963398337526357 -0.9045908734605521 2.348100285647059 -0.27531992647471615 C 2.3559032321778943 -0.2613622409778893 2.370648381857108 -0.25271988516316046 2.386639092231419 -0.2527317475533062 C 2.3941650209837806 -0.2527336067405619 2.401565308372724 -0.25466109697894357 2.4081358950116765 -0.25833083787745625 C 2.4293801619364466 -0.2702262186168438 2.4369729377427793 -0.297082147857763 2.425101833205942 -0.31833998963865184 C 2.0595106691227434 -0.9723719462269185 1.3983715388152815 -1.4129671088106486 0.6565764044762934 -1.4969270060694786 Z M 0.9397984347064002 -1.0941860595815678 C 0.9163940352130517 -1.1008576753576458 0.8920059337997726 -1.087324675865577 0.8852825428556671 -1.0639350972691042 C 0.8820503897429758 -1.0526937180185185 0.8834206294473004 -1.0406284830982298 0.889091304173653 -1.0303981913454372 C 0.8947619789000056 -1.0201678995926442 0.9042676844839656 -1.0126121725012163 0.9155136619655647 -1.0093960550153769 C 1.2955109911119633 -0.9005891609429963 1.6275076132502604 -0.679043111489662 1.8755939461361433 -0.36871195935343604 C 1.8839657237128766 -0.35822196891394853 1.896666957068141 -0.35212586400728974 1.9100880465973873 -0.35215611401221114 C 1.9200763801116192 -0.3521502079287586 1.9297678324643623 -0.35555219120317716 1.9375609605505562 -0.36179991045947624 C 1.9565967971940852 -0.3770002441099596 1.9597062223595951 -0.40475408473011054 1.9445060814487933 -0.4237900752768846 C 1.6849106910744034 -0.7485075492737434 1.3374826717403092 -0.9803158416543303 0.9397984347064002 -1.0941959811828506 Z M 2.5968017578125 -3.417418294453409 C 2.6084975290911063 -3.4174147840543485 2.6197152800108365 -3.422059356448382 2.627985439565657 -3.4303295160032024 C 2.636255599120477 -3.438599675558023 2.6409001715145104 -3.449817426477752 2.64089666111545 -3.461513197756359 L 2.64089666111545 -4.69620356224323 C 2.6409001715145095 -4.70789933352184 2.6362555991204757 -4.719117084441569 2.627985439565655 -4.7273872439963895 C 2.619715280010834 -4.735657403551208 2.608497529091104 -4.740301975945242 2.596801757812498 -4.74029846554618 C 2.5851059865338937 -4.74030197594524 2.5738882356141635 -4.735657403551207 2.565618076059343 -4.727387243996386 C 2.557347916504523 -4.7191170844415655 2.5527033441104896 -4.707899333521835 2.55270685450955 -4.696203562243229 L 2.55270685450955 -3.461513197756358 C 2.5527033441104905 -3.4498174264777495 2.5573479165045248 -3.4385996755580193 2.5656180760593457 -3.4303295160031997 C 2.573888235614166 -3.42205935644838 2.585105986533896 -3.417414784054347 2.5968017578125027 -3.417418294453408 Z M 3.251627442503422 -3.146188172974258 C 3.259886590741329 -3.1379048321885037 3.27110711130522 -3.1332557016779967 3.2828044209356504 -3.1332702481035373 C 3.29450158537242 -3.1332564337252595 3.305721836026049 -3.137905452400668 3.3139813993678793 -3.146188172974258 L 4.187029397082265 -4.019259321091638 C 4.195301930654677 -4.027525907537557 4.199949891888156 -4.038741374847984 4.199949891888156 -4.0504362995238665 C 4.199949891888156 -4.062131224199748 4.195301930654677 -4.073346691510175 4.187029397082265 -4.081613277956095 C 4.178762810636345 -4.089885811528508 4.167547343325918 -4.094533772761987 4.155852418650036 -4.094533772761987 C 4.144157493974154 -4.094533772761987 4.132942026663726 -4.089885811528508 4.124675440217807 -4.081613277956095 L 3.251627442503422 -3.2085421298387162 C 3.243356531074658 -3.2002746821035335 3.238709690134506 -3.189059537577485 3.238709690134506 -3.177365151406487 C 3.238709690134506 -3.1656707652354887 3.243356531074658 -3.1544556207094403 3.251627442503422 -3.146188172974258 Z M 1.879655188261398 -3.146188172974258 C 1.8879147516032284 -3.137905452400668 1.8991350022568572 -3.1332564337252595 1.9108321666936268 -3.1332702481035373 C 1.9225294763240575 -3.1332557016779967 1.9337499968879488 -3.1379048321885037 1.9420091451258559 -3.146188172974258 C 1.95028005655462 -3.1544556207094403 1.9549268974947716 -3.1656707652354887 1.9549268974947716 -3.177365151406487 C 1.9549268974947716 -3.189059537577485 1.95028005655462 -3.2002746821035335 1.9420091451258559 -3.2085421298387162 L 1.0689446114093317 -4.081613277956095 C 1.0606780249634125 -4.089885811528508 1.0494625576529848 -4.094533772761987 1.037767632977103 -4.094533772761987 C 1.026072708301221 -4.094533772761987 1.0148572409907939 -4.089885811528508 1.0065906545448742 -4.081613277956095 C 0.9983181209724618 -4.073346691510175 0.9936701597389822 -4.062131224199748 0.9936701597389822 -4.0504362995238665 C 0.9936701597389822 -4.038741374847984 0.9983181209724618 -4.027525907537557 1.006590654544874 -4.019259321091637 Z M 3.4523414364624725 -2.8457620861190907 C 3.459165524874639 -2.8292942500068623 3.475227324952444 -2.8185494146176886 3.493053073727852 -2.8185272905967174 C 3.4988427217770988 -2.8185353802398905 3.5045740690906135 -2.8196838972897753 3.509919795909285 -2.821907249433859 L 4.650645981843437 -3.2944102817443475 C 4.673130541559506 -3.303747280588012 4.683805107539157 -3.329530212585445 4.674500818528666 -3.352028327596294 C 4.665142964878225 -3.374491998622018 4.639380873645586 -3.3851579361757445 4.616882772676721 -3.3758831642815235 L 3.4761863515464193 -2.9033801319710353 C 3.4537006041473206 -2.894044318720211 3.443023342890317 -2.8682620254950533 3.4523249004603334 -2.8457620861190898 Z M 2.1848238005299336 -3.3707867684223896 C 2.191651121440767 -3.354311157572573 2.2077244103225 -3.3435647474125436 2.225558588198308 -3.3435519729000176 C 2.2313537858218173 -3.3435580631816815 2.237090928650488 -3.34470661557559 2.2424418463818796 -3.3469319317371586 C 2.264925011241664 -3.3562703239028235 2.275599000537574 -3.3820518630007506 2.2662966830671096 -3.404549977589105 L 1.7938134939591879 -4.5452463987194065 C 1.7844417017153036 -4.567694270434808 1.7586968297531296 -4.578355168565519 1.7361987553076703 -4.569104542605064 C 1.7137142991940293 -4.5597674398402495 1.7030386739529244 -4.533985523711814 1.712340611422012 -4.511486496753117 Z M 2.9511616692431204 -3.3469319317371586 C 2.9565125869745117 -3.34470661557559 2.9622497298031822 -3.3435580631816815 2.968044927426692 -3.343551972900017 C 2.9858791053025 -3.3435647474125436 3.0019523941842325 -3.354311157572573 3.008779715095066 -3.37078676842239 L 3.4812629042029877 -4.511493111153975 C 3.4905648416720756 -4.53399213811267 3.4798892164309705 -4.559774054241105 3.4574047603173295 -4.56911115700592 C 3.4349066560163437 -4.578393175374858 3.40913964162246 -4.5677231081090595 3.3997900216658117 -4.545253013120262 L 2.92730683255789 -3.4045433631882482 C 2.9180045150874254 -3.382045248599895 2.9286785043833357 -3.3562637095019676 2.951161669243121 -3.3469253173363027 Z M 0.5429343833785689 -3.2944102817443475 L 1.683660569312721 -2.821907249433859 C 1.6890062961313925 -2.8196838972897753 1.6947376434449075 -2.8185353802398905 1.7005272914941536 -2.8185272905967174 C 1.7183626734223467 -2.818538728910121 1.7344376039538671 -2.8292853641534297 1.7412653863629555 -2.8457620861190898 C 1.75056770383342 -2.8682602007074434 1.7398937145375097 -2.8940417398053713 1.7174105496777252 -2.9033801319710353 L 0.5766975925452842 -3.3758831642815235 C 0.5541994839825005 -3.3851697286442373 0.5284290699829535 -3.374500345325518 0.5190795466933386 -3.352028327596293 C 0.509777229222874 -3.3295302130079394 0.5204512185187843 -3.303748673910013 0.5429343833785689 -3.2944102817443475 Z M 3.505031753677097 -2.672048076452043 C 3.5091309195405875 -2.65143716885702 3.5272092188148467 -2.6365855553108073 3.548223791263276 -2.636565123062908 C 3.5511298933268653 -2.6365717536551436 3.5540288654121017 -2.6368530137428636 3.5568820419830787 -2.6374051519715507 L 4.767839936200546 -2.8782751735241217 C 4.779310057717928 -2.8805615167713534 4.789401974576622 -2.88731110424999 4.795895201934528 -2.897038850728297 C 4.802388429292434 -2.9067665972066035 4.804750975027741 -2.9186755054127804 4.8024630174784715 -2.93014530503267 C 4.8001987769499905 -2.9416238056626525 4.793458421152213 -2.951728832526672 4.783730473418451 -2.9582288167399247 C 4.774002525684688 -2.964728800953177 4.762087268097956 -2.9670890129870813 4.75061603637292 -2.964788229513161 L 3.539654834955024 -2.723918207960589 C 3.515770461664825 -2.719155465030125 3.5002692320656714 -2.695932493874035 3.505031753677097 -2.672048076452043 Z M 2.4074976053291244 -3.3987722984418562 C 2.4104037073927134 -3.3987789290340933 2.41330267947795 -3.3990601891218137 2.4161558560489267 -3.3996123273505003 C 2.427625803491392 -3.4018986184427598 2.4377174627196085 -3.408648345048952 2.444210160562865 -3.418376227449949 C 2.450702858406122 -3.4281041098509455 2.4530645808817493 -3.4400130418847126 2.450775630126425 -3.4514824588590476 L 2.2098857653712862 -4.662440353076515 C 2.207613356578987 -4.673914666828182 2.200871363963138 -4.684014375907017 2.1911458011039096 -4.690513386975032 C 2.18142023824468 -4.697012398043048 2.169509475776242 -4.69937720783026 2.158038784265733 -4.697086584757435 C 2.146568662748351 -4.694800241510204 2.1364767458896567 -4.688050654031567 2.1299835185317506 -4.67832290755326 C 2.123490291173845 -4.668595161074953 2.121127745438538 -4.656686252868777 2.123415702987807 -4.645216453248887 L 2.364305567742946 -3.434255251830992 C 2.3684047336064364 -3.413644344235968 2.386483032880696 -3.398792730689756 2.4074976053291244 -3.3987722984418562 Z M 3.1112698563504786 -3.261361427870023 C 3.1185133393619933 -3.256518884279381 3.12703003056873 -3.2539328025034973 3.135743139515695 -3.2539301485089087 C 3.150483981904012 -3.2539012880580187 3.164259270292601 -3.2612582903748017 3.172433221060953 -3.2735253110432194 L 3.8583730473759763 -4.300113395815488 C 3.864883988811873 -4.309834497028641 3.8672628932154725 -4.321745374309931 3.864985616883844 -4.333221705591635 C 3.862708340552215 -4.344698036873339 3.8559617478217696 -4.354798119561167 3.8462323146057718 -4.361296603728529 C 3.836518381982659 -4.367819539836289 3.8246058024360163 -4.3702032764058405 3.81312982377363 -4.367920493846606 C 3.8016538451112423 -4.36563771128737 3.791560350794893 -4.358876563161946 3.785082178697009 -4.34913272055533 L 3.0991390451815577 -3.3225446357830624 C 3.092627151738162 -3.312824741983037 3.0902466766226637 -3.3009147149947404 3.092522070294384 -3.289438492822762 C 3.0947974639661036 -3.277962270650783 3.101542032131796 -3.2678614684600755 3.1112698563504786 -3.261361427870023 Z M 1.7657022903234665 -2.9937030828528224 C 1.7729469144996064 -2.988863338398331 1.7814630713295192 -2.9862785697172525 1.7901755734886828 -2.9862751106921364 C 1.8049164158769997 -2.9862462502412463 1.8186917042655888 -2.99360325255803 1.8268656550339406 -3.0058702732264475 C 1.8333753988824697 -3.01559204188602 1.8357532610898895 -3.027502934909384 1.8334754096940393 -3.038979038074751 C 1.8311975582981894 -3.0504551412401155 1.8244508722574315 -3.0605549347409235 1.814721615063309 -3.067053481139488 L 0.7880938438859089 -3.7529833858532284 C 0.7783756523969273 -3.759492185366795 0.7664673794070218 -3.7618675905664434 0.7549956540469498 -3.759585654067019 C 0.7435239286868778 -3.757303717567595 0.7334312247256439 -3.7505519146812905 0.7269437079771456 -3.74081950268003 C 0.7204348442451259 -3.7310974691557366 0.7180575005491925 -3.719186843774456 0.720335299462378 -3.707711005023386 C 0.7226130983755636 -3.696235166272314 0.7293592029921983 -3.6861354220912377 0.7390877479477772 -3.67963629476699 Z M 3.3667676253949086 -3.005870273226449 C 3.374937216546466 -2.9936001404206047 3.388713392909167 -2.986242000607298 3.4034543997397386 -2.986275110692138 C 3.4121669018989027 -2.9862785697172534 3.4206830587288155 -2.988863338398332 3.427927682904955 -2.9937030828528233 L 4.454538918080217 -3.6796462163682753 C 4.464267463035795 -3.6861453436925227 4.47101356765243 -3.6962450878735993 4.473291366565616 -3.7077209266246705 C 4.4755691654788015 -3.7191967653757416 4.473191821782868 -3.7311073907570216 4.466682958050849 -3.740829424281315 C 4.46019544130235 -3.7505618362825754 4.450102737341116 -3.7573136391688804 4.438631011981045 -3.759595575668304 C 4.427159286620973 -3.7618775121677284 4.415251013631067 -3.75950210696808 4.405532822142086 -3.752993307454514 L 3.3789017437642572 -3.067040252337778 C 3.3691760409865945 -3.060541911028249 3.3624320468096855 -3.0504443446608667 3.3601549159796593 -3.038971227844696 C 3.357877785149633 -3.0274981110285264 3.360254265417179 -3.0155903553399073 3.3667610109940536 -3.005870273226448 Z M 2.021183523365758 -3.27352531104322 C 2.02935747413411 -3.2612582903748017 2.043132762522699 -3.2539012880580187 2.0578736049110162 -3.253930148508908 C 2.0665867138579803 -3.2539328025034973 2.0751034050647172 -3.256518884279381 2.082346888076232 -3.261361427870023 C 2.092076857665332 -3.2678593931606477 2.0988241253004847 -3.277959236001888 2.1011020291974667 -3.289435603674592 C 2.103379933094449 -3.300911971347297 2.1010015522260868 -3.31282313209691 2.0944909280468638 -3.3225446357830632 L 1.4085246441284185 -4.349119491753619 C 1.4020417938248062 -4.358857614022298 1.3919486953514781 -4.3656140840363 1.3804748463423784 -4.36789644296845 C 1.3690009973332786 -4.370178801900601 1.3570905737815133 -4.367799235835129 1.347374508219655 -4.361283374926817 C 1.3376450750036573 -4.354784890759456 1.3308984822732126 -4.344684808071628 1.3286212059415836 -4.333208476789924 C 1.3263439296099544 -4.3217321455082205 1.3287228340135542 -4.30982126822693 1.3352337754494514 -4.3001001670137775 Z M 2.7774476595760733 -3.3996123273505003 C 2.78030083614705 -3.399060189121813 2.783199808232287 -3.3987789290340933 2.7861059102958756 -3.3987722984418562 C 2.8071204827443044 -3.398792730689757 2.8251987820185644 -3.413644344235969 2.8292979478820546 -3.4342552518309937 L 3.0701878126371924 -4.645216453248887 C 3.0724757701864616 -4.656686252868777 3.0701132244511546 -4.668595161074953 3.063619997093249 -4.67832290755326 C 3.057126769735343 -4.688050654031567 3.047034852876649 -4.694800241510204 3.0355647313592664 -4.697086584757434 C 3.0240943172932058 -4.699374463144999 3.012184893190877 -4.697008523498405 3.0024600031870694 -4.6905099620593615 C 2.9927351131832625 -4.684011400620318 2.985992588742179 -4.67391336036382 2.983717750253713 -4.662440353076514 L 2.7428278854985755 -3.4514824588590476 C 2.7405389347432507 -3.4400130418847126 2.742900657218878 -3.4281041098509455 2.749393355062135 -3.418376227449949 C 2.7558860529053915 -3.408648345048952 2.765977712133608 -3.4018986184427598 2.777447659576073 -3.3996123273505003 Z M 0.4257635794244544 -2.8782751735241225 L 1.6367214736419213 -2.6374051519715507 C 1.6395746502128985 -2.6368530137428636 1.6424736222981349 -2.6365717536551445 1.6453797243617239 -2.636565123062907 C 1.6663942968101528 -2.6365855553108073 1.684472596084412 -2.65143716885702 1.6885717619479024 -2.672048076452044 C 1.6933342835593295 -2.695932493874035 1.6778330539601765 -2.7191554650301266 1.653948680669977 -2.7239182079605904 L 0.4429874792520823 -2.964788229513162 C 0.43151523427330596 -2.967099123496306 0.4195950432356625 -2.9647430751047925 0.4098646129262773 -2.958241432093323 C 0.4001341826168921 -2.951739789081853 0.39339578555336624 -2.9416286109402456 0.3911404981465289 -2.93014530503267 C 0.38885254059725965 -2.9186755054127804 0.3912150863325663 -2.9067665972066035 0.3977083136904722 -2.897038850728297 C 0.40420154104837813 -2.88731110424999 0.41429345790707234 -2.8805615167713534 0.42576357942445453 -2.8782751735241225 Z" fill="#393a57" transform="matrix(1,0,0,1,0,0)" fill-rule="nonzero"></path></g></g></g><defs><clipPath id="SvgjsClipPath1002"><path d=" M 0.3479054669547894 -4.7402984655461795 h 4.497792581715421 v 4.4902984655461795 h -4.497792581715421 Z"></path></clipPath><clipPath id="SvgjsClipPath1000903316a9-e5ea-4063-ad7b-537d881902bc"><path d=" M 0.3479054669547894 -4.7402984655461795 L 4.845698048670211 -4.7402984655461795 L 4.845698048670211 -0.25 L 0.3479054669547894 -0.25 Z"></path></clipPath></defs></svg>